solid OpenSCAD_Model
  facet normal -1 -0 -0
    outer loop
      vertex -6 -6 -0.5
      vertex -6 -6 0.5
      vertex -6 6 -0.5
    endloop
  endfacet
  facet normal -1 0 0
    outer loop
      vertex -6 6 -0.5
      vertex -6 -6 0.5
      vertex -6 6 0.5
    endloop
  endfacet
  facet normal 0 -1 0
    outer loop
      vertex -6 -6 0.5
      vertex -6 -6 -0.5
      vertex 6 -6 -0.5
    endloop
  endfacet
  facet normal 0 -1 0
    outer loop
      vertex 6 -6 0.5
      vertex -6 -6 0.5
      vertex 6 -6 -0.5
    endloop
  endfacet
  facet normal -0 -0 -1
    outer loop
      vertex -6 -6 -0.5
      vertex -6 6 -0.5
      vertex 6 -6 -0.5
    endloop
  endfacet
  facet normal 0 0 -1
    outer loop
      vertex 6 -6 -0.5
      vertex -6 6 -0.5
      vertex 6 6 -0.5
    endloop
  endfacet
  facet normal 0 1 0
    outer loop
      vertex -6 6 -0.5
      vertex -6 6 0.5
      vertex 6 6 -0.5
    endloop
  endfacet
  facet normal 0 1 0
    outer loop
      vertex 6 6 -0.5
      vertex -6 6 0.5
      vertex 6 6 0.5
    endloop
  endfacet
  facet normal 0 -0 1
    outer loop
      vertex -4.25 -4.25 0.5
      vertex -6 -6 0.5
      vertex 6 -6 0.5
    endloop
  endfacet
  facet normal -0 0 1
    outer loop
      vertex -4.25 4.25 0.5
      vertex -6 6 0.5
      vertex -4.25 -4.25 0.5
    endloop
  endfacet
  facet normal 0 -0 1
    outer loop
      vertex 4.25 -4.25 0.5
      vertex -4.25 -4.25 0.5
      vertex 6 -6 0.5
    endloop
  endfacet
  facet normal 0 -0 1
    outer loop
      vertex -6 6 0.5
      vertex -6 -6 0.5
      vertex -4.25 -4.25 0.5
    endloop
  endfacet
  facet normal 0 0 1
    outer loop
      vertex 6 6 0.5
      vertex -6 6 0.5
      vertex -4.25 4.25 0.5
    endloop
  endfacet
  facet normal 0 0 1
    outer loop
      vertex 6 6 0.5
      vertex 4.25 4.25 0.5
      vertex 6 -6 0.5
    endloop
  endfacet
  facet normal 0 0 1
    outer loop
      vertex 6 6 0.5
      vertex -4.25 4.25 0.5
      vertex 4.25 4.25 0.5
    endloop
  endfacet
  facet normal 0 -0 1
    outer loop
      vertex 4.25 4.25 0.5
      vertex 4.25 -4.25 0.5
      vertex 6 -6 0.5
    endloop
  endfacet
  facet normal 1 0 -0
    outer loop
      vertex 6 -6 0.5
      vertex 6 -6 -0.5
      vertex 6 6 -0.5
    endloop
  endfacet
  facet normal 1 0 0
    outer loop
      vertex 6 6 0.5
      vertex 6 -6 0.5
      vertex 6 6 -0.5
    endloop
  endfacet
  facet normal -1 -0 -0
    outer loop
      vertex -4.25 -4.25 0.5
      vertex -4.25 -4.25 1.5
      vertex -4.25 4.25 0.5
    endloop
  endfacet
  facet normal -1 0 0
    outer loop
      vertex -4.25 4.25 0.5
      vertex -4.25 -4.25 1.5
      vertex -4.25 4.25 1.5
    endloop
  endfacet
  facet normal 0 -1 0
    outer loop
      vertex -4.25 -4.25 1.5
      vertex -4.25 -4.25 0.5
      vertex 4.25 -4.25 0.5
    endloop
  endfacet
  facet normal 0 -1 0
    outer loop
      vertex 4.25 -4.25 1.5
      vertex -4.25 -4.25 1.5
      vertex 4.25 -4.25 0.5
    endloop
  endfacet
  facet normal 1 0 -0
    outer loop
      vertex 4.25 -4.25 1.5
      vertex 4.25 -4.25 0.5
      vertex 4.25 4.25 0.5
    endloop
  endfacet
  facet normal 1 0 0
    outer loop
      vertex 4.25 4.25 1.5
      vertex 4.25 -4.25 1.5
      vertex 4.25 4.25 0.5
    endloop
  endfacet
  facet normal 0 1 0
    outer loop
      vertex -4.25 4.25 0.5
      vertex -4.25 4.25 1.5
      vertex 4.25 4.25 0.5
    endloop
  endfacet
  facet normal 0 1 0
    outer loop
      vertex 4.25 4.25 0.5
      vertex -4.25 4.25 1.5
      vertex 4.25 4.25 1.5
    endloop
  endfacet
  facet normal 0 -0 1
    outer loop
      vertex -4.25 4.25 1.5
      vertex -4.25 -4.25 1.5
      vertex 4.25 -4.25 1.5
    endloop
  endfacet
  facet normal 0 0 1
    outer loop
      vertex 4.25 4.25 1.5
      vertex -4.25 4.25 1.5
      vertex 4.25 -4.25 1.5
    endloop
  endfacet
endsolid OpenSCAD_Model
