solid OpenSCAD_Model
  facet normal -1 -0 -0
    outer loop
      vertex -6 -6 -2
      vertex -6 -6 2
      vertex -6 6 -2
    endloop
  endfacet
  facet normal -1 0 0
    outer loop
      vertex -6 6 -2
      vertex -6 -6 2
      vertex -6 6 2
    endloop
  endfacet
  facet normal 0 -1 0
    outer loop
      vertex -6 -6 2
      vertex -6 -6 -2
      vertex 6 -6 -2
    endloop
  endfacet
  facet normal 0 -1 0
    outer loop
      vertex 6 -6 2
      vertex -6 -6 2
      vertex 6 -6 -2
    endloop
  endfacet
  facet normal 0 -0 -1
    outer loop
      vertex -3 3 -2
      vertex -6 6 -2
      vertex 6 6 -2
    endloop
  endfacet
  facet normal 0 -0 -1
    outer loop
      vertex -6 -6 -2
      vertex -6 6 -2
      vertex -4.5 -1 -2
    endloop
  endfacet
  facet normal 0 0 -1
    outer loop
      vertex -3 3 -2
      vertex 3 -3 -2
      vertex -3 1 -2
    endloop
  endfacet
  facet normal 0 0 -1
    outer loop
      vertex -6 -6 -2
      vertex -4.5 -1 -2
      vertex -4.5 -3 -2
    endloop
  endfacet
  facet normal -0 0 -1
    outer loop
      vertex -6 -6 -2
      vertex -4.5 -3 -2
      vertex 6 -6 -2
    endloop
  endfacet
  facet normal 0 0 -1
    outer loop
      vertex -4.5 -3 -2
      vertex -3 -3 -2
      vertex 6 -6 -2
    endloop
  endfacet
  facet normal 0 0 -1
    outer loop
      vertex -3 1 -2
      vertex -3 -1 -2
      vertex -4.5 1 -2
    endloop
  endfacet
  facet normal 0 0 -1
    outer loop
      vertex -4.5 1 -2
      vertex -6 6 -2
      vertex -4.5 3 -2
    endloop
  endfacet
  facet normal 0 0 -1
    outer loop
      vertex -4.5 -1 -2
      vertex -6 6 -2
      vertex -4.5 1 -2
    endloop
  endfacet
  facet normal -0 -0 -1
    outer loop
      vertex -4.5 -1 -2
      vertex -4.5 1 -2
      vertex -3 -1 -2
    endloop
  endfacet
  facet normal 0 0 -1
    outer loop
      vertex 3 -3 -2
      vertex 6 -6 -2
      vertex -3 1 -2
    endloop
  endfacet
  facet normal -0 -0 -1
    outer loop
      vertex -3 -1 -2
      vertex -3 1 -2
      vertex 6 -6 -2
    endloop
  endfacet
  facet normal -0 -0 -1
    outer loop
      vertex -4.5 3 -2
      vertex -6 6 -2
      vertex -3 3 -2
    endloop
  endfacet
  facet normal 0 -0 -1
    outer loop
      vertex 3 3 -2
      vertex -3 3 -2
      vertex 6 6 -2
    endloop
  endfacet
  facet normal 0 0 -1
    outer loop
      vertex 3 -3 -2
      vertex -3 3 -2
      vertex 3 -1 -2
    endloop
  endfacet
  facet normal 0 0 -1
    outer loop
      vertex 4.5 -3 -2
      vertex 6 -6 -2
      vertex 3 -3 -2
    endloop
  endfacet
  facet normal -0 0 -1
    outer loop
      vertex 3 3 -2
      vertex 6 6 -2
      vertex 4.5 3 -2
    endloop
  endfacet
  facet normal 0 0 -1
    outer loop
      vertex 6 -6 -2
      vertex 4.5 -3 -2
      vertex 6 6 -2
    endloop
  endfacet
  facet normal 0 -0 -1
    outer loop
      vertex 4.5 -3 -2
      vertex 4.5 -1 -2
      vertex 6 6 -2
    endloop
  endfacet
  facet normal 0 0 -1
    outer loop
      vertex 3 -1 -2
      vertex -3 3 -2
      vertex 3 1 -2
    endloop
  endfacet
  facet normal 0 0 -1
    outer loop
      vertex 4.5 1 -2
      vertex 3 -1 -2
      vertex 3 1 -2
    endloop
  endfacet
  facet normal 0 0 -1
    outer loop
      vertex -3 3 -2
      vertex 3 3 -2
      vertex 3 1 -2
    endloop
  endfacet
  facet normal -0 0 -1
    outer loop
      vertex 4.5 3 -2
      vertex 6 6 -2
      vertex 4.5 1 -2
    endloop
  endfacet
  facet normal 0 0 -1
    outer loop
      vertex 4.5 -1 -2
      vertex 3 -1 -2
      vertex 4.5 1 -2
    endloop
  endfacet
  facet normal 0 -0 -1
    outer loop
      vertex 4.5 -1 -2
      vertex 4.5 1 -2
      vertex 6 6 -2
    endloop
  endfacet
  facet normal 0 0 -1
    outer loop
      vertex -3 -1 -2
      vertex 6 -6 -2
      vertex -3 -3 -2
    endloop
  endfacet
  facet normal 0 1 0
    outer loop
      vertex -6 6 -2
      vertex -6 6 2
      vertex 6 6 -2
    endloop
  endfacet
  facet normal 0 1 0
    outer loop
      vertex 6 6 -2
      vertex -6 6 2
      vertex 6 6 2
    endloop
  endfacet
  facet normal 0 -0 1
    outer loop
      vertex -4.5 -3 2
      vertex -6 -6 2
      vertex 6 -6 2
    endloop
  endfacet
  facet normal -0 -0 1
    outer loop
      vertex -3 -3.25 2
      vertex -4.5 -3 2
      vertex 6 -6 2
    endloop
  endfacet
  facet normal 0 -0 1
    outer loop
      vertex -6 6 2
      vertex -6 -6 2
      vertex -4.5 -3 2
    endloop
  endfacet
  facet normal 0 0 1
    outer loop
      vertex -6 6 2
      vertex -4.5 -3 2
      vertex -4.5 -1 2
    endloop
  endfacet
  facet normal 0 -0 1
    outer loop
      vertex -4.5 1 2
      vertex -4.5 -1 2
      vertex -3 -1 2
    endloop
  endfacet
  facet normal 0 0 1
    outer loop
      vertex -6 6 2
      vertex -4.5 -1 2
      vertex -4.5 1 2
    endloop
  endfacet
  facet normal 0 0 1
    outer loop
      vertex -3 3.25 2
      vertex 3 3.25 2
      vertex 6 6 2
    endloop
  endfacet
  facet normal 0 0 1
    outer loop
      vertex -4.5 3 2
      vertex -3 3 2
      vertex -6 6 2
    endloop
  endfacet
  facet normal -0 0 1
    outer loop
      vertex -3 3.25 2
      vertex -6 6 2
      vertex -3 3 2
    endloop
  endfacet
  facet normal 0 0 1
    outer loop
      vertex 3 -1 2
      vertex 4.5 -1 2
      vertex 3 1 2
    endloop
  endfacet
  facet normal 0 0 1
    outer loop
      vertex 6 6 2
      vertex -6 6 2
      vertex -3 3.25 2
    endloop
  endfacet
  facet normal 0 0 1
    outer loop
      vertex 4.5 1 2
      vertex 3 1 2
      vertex 4.5 -1 2
    endloop
  endfacet
  facet normal 0 0 1
    outer loop
      vertex 6 6 2
      vertex 4.5 3 2
      vertex 6 -6 2
    endloop
  endfacet
  facet normal 0 0 1
    outer loop
      vertex 6 6 2
      vertex 3 3.25 2
      vertex 4.5 3 2
    endloop
  endfacet
  facet normal 0 -0 1
    outer loop
      vertex 4.5 3 2
      vertex 4.5 1 2
      vertex 6 -6 2
    endloop
  endfacet
  facet normal 0 -0 1
    outer loop
      vertex 4.5 -1 2
      vertex 4.5 -3 2
      vertex 6 -6 2
    endloop
  endfacet
  facet normal 0 -0 1
    outer loop
      vertex 4.5 1 2
      vertex 4.5 -1 2
      vertex 6 -6 2
    endloop
  endfacet
  facet normal 0 -0 1
    outer loop
      vertex 4.5 -3 2
      vertex 3 -3 2
      vertex 6 -6 2
    endloop
  endfacet
  facet normal 0 -0 1
    outer loop
      vertex 3 -3 2
      vertex 3 -3.25 2
      vertex 6 -6 2
    endloop
  endfacet
  facet normal 0 0 1
    outer loop
      vertex -4.5 1 2
      vertex -4.5 3 2
      vertex -6 6 2
    endloop
  endfacet
  facet normal 0 0 1
    outer loop
      vertex -3 -3 2
      vertex -4.5 -3 2
      vertex -3 -3.25 2
    endloop
  endfacet
  facet normal 0 0 1
    outer loop
      vertex -3 1 2
      vertex -4.5 1 2
      vertex -3 -1 2
    endloop
  endfacet
  facet normal 0 0 1
    outer loop
      vertex 3 3 2
      vertex 4.5 3 2
      vertex 3 3.25 2
    endloop
  endfacet
  facet normal 0 -0 1
    outer loop
      vertex 3 -3.25 2
      vertex -3 -3.25 2
      vertex 6 -6 2
    endloop
  endfacet
  facet normal 1 0 -0
    outer loop
      vertex 6 -6 2
      vertex 6 -6 -2
      vertex 6 6 -2
    endloop
  endfacet
  facet normal 1 0 0
    outer loop
      vertex 6 6 2
      vertex 6 -6 2
      vertex 6 6 -2
    endloop
  endfacet
  facet normal 1 0 0
    outer loop
      vertex -4.5 -1 -2
      vertex -4.5 -1 2
      vertex -4.5 -3 2
    endloop
  endfacet
  facet normal 1 0 0
    outer loop
      vertex -4.5 -3 -2
      vertex -4.5 -1 -2
      vertex -4.5 -3 2
    endloop
  endfacet
  facet normal 0 -1 0
    outer loop
      vertex -3 -1 0
      vertex -3 -1 2
      vertex -4.5 -1 2
    endloop
  endfacet
  facet normal 0 -1 0
    outer loop
      vertex -3 -1 -2
      vertex -3 -1 0
      vertex -4.5 -1 2
    endloop
  endfacet
  facet normal -0 -1 -0
    outer loop
      vertex -4.5 -1 -2
      vertex -3 -1 -2
      vertex -4.5 -1 2
    endloop
  endfacet
  facet normal -1 -0 -0
    outer loop
      vertex -3 -3 -2
      vertex -3 -3 0
      vertex -3 -1 -2
    endloop
  endfacet
  facet normal -1 0 0
    outer loop
      vertex -3 -1 -2
      vertex -3 -3 0
      vertex -3 -1 0
    endloop
  endfacet
  facet normal 0 1 0
    outer loop
      vertex -3 -3 2
      vertex -3 -3 0
      vertex -4.5 -3 2
    endloop
  endfacet
  facet normal 0 1 0
    outer loop
      vertex -4.5 -3 2
      vertex -3 -3 0
      vertex -3 -3 -2
    endloop
  endfacet
  facet normal 0 1 -0
    outer loop
      vertex -4.5 -3 2
      vertex -3 -3 -2
      vertex -4.5 -3 -2
    endloop
  endfacet
  facet normal 1 0 0
    outer loop
      vertex -4.5 3 -2
      vertex -4.5 3 2
      vertex -4.5 1 2
    endloop
  endfacet
  facet normal 1 0 0
    outer loop
      vertex -4.5 1 -2
      vertex -4.5 3 -2
      vertex -4.5 1 2
    endloop
  endfacet
  facet normal 0 -1 0
    outer loop
      vertex -3 3 0
      vertex -3 3 2
      vertex -4.5 3 2
    endloop
  endfacet
  facet normal 0 -1 0
    outer loop
      vertex -3 3 -2
      vertex -3 3 0
      vertex -4.5 3 2
    endloop
  endfacet
  facet normal -0 -1 -0
    outer loop
      vertex -4.5 3 -2
      vertex -3 3 -2
      vertex -4.5 3 2
    endloop
  endfacet
  facet normal -1 -0 -0
    outer loop
      vertex -3 1 -2
      vertex -3 1 0
      vertex -3 3 -2
    endloop
  endfacet
  facet normal -1 0 0
    outer loop
      vertex -3 3 -2
      vertex -3 1 0
      vertex -3 3 0
    endloop
  endfacet
  facet normal 0 1 0
    outer loop
      vertex -3 1 2
      vertex -3 1 0
      vertex -4.5 1 2
    endloop
  endfacet
  facet normal 0 1 0
    outer loop
      vertex -4.5 1 2
      vertex -3 1 0
      vertex -3 1 -2
    endloop
  endfacet
  facet normal 0 1 -0
    outer loop
      vertex -4.5 1 2
      vertex -3 1 -2
      vertex -4.5 1 -2
    endloop
  endfacet
  facet normal 1 0 -0
    outer loop
      vertex 3 -3 0
      vertex 3 -3 -2
      vertex 3 -1 -2
    endloop
  endfacet
  facet normal 1 0 0
    outer loop
      vertex 3 -1 0
      vertex 3 -3 0
      vertex 3 -1 -2
    endloop
  endfacet
  facet normal 0 -1 0
    outer loop
      vertex 4.5 -1 -2
      vertex 4.5 -1 2
      vertex 3 -1 2
    endloop
  endfacet
  facet normal -0 -1 -0
    outer loop
      vertex 3 -1 -2
      vertex 4.5 -1 -2
      vertex 3 -1 0
    endloop
  endfacet
  facet normal -0 -1 -0
    outer loop
      vertex 3 -1 0
      vertex 4.5 -1 -2
      vertex 3 -1 2
    endloop
  endfacet
  facet normal -1 0 0
    outer loop
      vertex 4.5 -1 2
      vertex 4.5 -1 -2
      vertex 4.5 -3 2
    endloop
  endfacet
  facet normal -1 0 0
    outer loop
      vertex 4.5 -3 2
      vertex 4.5 -1 -2
      vertex 4.5 -3 -2
    endloop
  endfacet
  facet normal 0 1 -0
    outer loop
      vertex 3 -3 2
      vertex 4.5 -3 2
      vertex 3 -3 0
    endloop
  endfacet
  facet normal 0 1 0
    outer loop
      vertex 3 -3 0
      vertex 4.5 -3 2
      vertex 4.5 -3 -2
    endloop
  endfacet
  facet normal 0 1 -0
    outer loop
      vertex 3 -3 0
      vertex 4.5 -3 -2
      vertex 3 -3 -2
    endloop
  endfacet
  facet normal 1 0 -0
    outer loop
      vertex 3 1 0
      vertex 3 1 -2
      vertex 3 3 -2
    endloop
  endfacet
  facet normal 1 0 0
    outer loop
      vertex 3 3 0
      vertex 3 1 0
      vertex 3 3 -2
    endloop
  endfacet
  facet normal 0 -1 0
    outer loop
      vertex 4.5 3 -2
      vertex 4.5 3 2
      vertex 3 3 2
    endloop
  endfacet
  facet normal -0 -1 -0
    outer loop
      vertex 3 3 -2
      vertex 4.5 3 -2
      vertex 3 3 0
    endloop
  endfacet
  facet normal -0 -1 -0
    outer loop
      vertex 3 3 0
      vertex 4.5 3 -2
      vertex 3 3 2
    endloop
  endfacet
  facet normal -1 0 0
    outer loop
      vertex 4.5 3 2
      vertex 4.5 3 -2
      vertex 4.5 1 2
    endloop
  endfacet
  facet normal -1 0 0
    outer loop
      vertex 4.5 1 2
      vertex 4.5 3 -2
      vertex 4.5 1 -2
    endloop
  endfacet
  facet normal 0 1 -0
    outer loop
      vertex 3 1 2
      vertex 4.5 1 2
      vertex 3 1 0
    endloop
  endfacet
  facet normal 0 1 0
    outer loop
      vertex 3 1 0
      vertex 4.5 1 2
      vertex 4.5 1 -2
    endloop
  endfacet
  facet normal 0 1 -0
    outer loop
      vertex 3 1 0
      vertex 4.5 1 -2
      vertex 3 1 -2
    endloop
  endfacet
  facet normal 1 0 0
    outer loop
      vertex -3 -3 0
      vertex -3 -3 2
      vertex -3 -3.25 2
    endloop
  endfacet
  facet normal 1 0 0
    outer loop
      vertex -3 -3.25 0
      vertex -3 -3 0
      vertex -3 -3.25 2
    endloop
  endfacet
  facet normal 0 1 0
    outer loop
      vertex 3 -3.25 2
      vertex 3 -3.25 0
      vertex -3 -3.25 2
    endloop
  endfacet
  facet normal 0 1 -0
    outer loop
      vertex -3 -3.25 2
      vertex 3 -3.25 0
      vertex -3 -3.25 0
    endloop
  endfacet
  facet normal -1 0 0
    outer loop
      vertex 3 -3 2
      vertex 3 -3 0
      vertex 3 -3.25 2
    endloop
  endfacet
  facet normal -1 0 0
    outer loop
      vertex 3 -3.25 2
      vertex 3 -3 0
      vertex 3 -3.25 0
    endloop
  endfacet
  facet normal -1 0 0
    outer loop
      vertex 3 1 2
      vertex 3 1 0
      vertex 3 -1 2
    endloop
  endfacet
  facet normal -1 0 0
    outer loop
      vertex 3 -1 2
      vertex 3 1 0
      vertex 3 -1 0
    endloop
  endfacet
  facet normal -1 0 0
    outer loop
      vertex 3 3.25 2
      vertex 3 3.25 0
      vertex 3 3 2
    endloop
  endfacet
  facet normal -1 0 0
    outer loop
      vertex 3 3 2
      vertex 3 3.25 0
      vertex 3 3 0
    endloop
  endfacet
  facet normal 0 -1 0
    outer loop
      vertex 3 3.25 0
      vertex 3 3.25 2
      vertex -3 3.25 2
    endloop
  endfacet
  facet normal -0 -1 -0
    outer loop
      vertex -3 3.25 0
      vertex 3 3.25 0
      vertex -3 3.25 2
    endloop
  endfacet
  facet normal 1 0 0
    outer loop
      vertex -3 3.25 0
      vertex -3 3.25 2
      vertex -3 3 2
    endloop
  endfacet
  facet normal 1 0 0
    outer loop
      vertex -3 3 0
      vertex -3 3.25 0
      vertex -3 3 2
    endloop
  endfacet
  facet normal 1 0 0
    outer loop
      vertex -3 1 0
      vertex -3 1 2
      vertex -3 -1 2
    endloop
  endfacet
  facet normal 1 0 0
    outer loop
      vertex -3 -1 0
      vertex -3 1 0
      vertex -3 -1 2
    endloop
  endfacet
  facet normal 0 0 1
    outer loop
      vertex 3 -3 0
      vertex 3 -1 0
      vertex -3 3.25 0
    endloop
  endfacet
  facet normal 0 0 1
    outer loop
      vertex 3 -3.25 0
      vertex 3 -3 0
      vertex -3 3.25 0
    endloop
  endfacet
  facet normal 0 0 1
    outer loop
      vertex 3 -1 0
      vertex 3 1 0
      vertex -3 3.25 0
    endloop
  endfacet
  facet normal 0 0 1
    outer loop
      vertex -3 3 0
      vertex 3 -3.25 0
      vertex -3 3.25 0
    endloop
  endfacet
  facet normal 0 0 1
    outer loop
      vertex 3 1 0
      vertex 3 3 0
      vertex -3 3.25 0
    endloop
  endfacet
  facet normal 0 0 1
    outer loop
      vertex 3 3 0
      vertex 3 3.25 0
      vertex -3 3.25 0
    endloop
  endfacet
  facet normal 0 0 1
    outer loop
      vertex -3 1 0
      vertex 3 -3.25 0
      vertex -3 3 0
    endloop
  endfacet
  facet normal 0 0 1
    outer loop
      vertex -3 -1 0
      vertex 3 -3.25 0
      vertex -3 1 0
    endloop
  endfacet
  facet normal 0 0 1
    outer loop
      vertex -3 -3 0
      vertex 3 -3.25 0
      vertex -3 -1 0
    endloop
  endfacet
  facet normal 0 0 1
    outer loop
      vertex -3 -3.25 0
      vertex 3 -3.25 0
      vertex -3 -3 0
    endloop
  endfacet
endsolid OpenSCAD_Model
