solid OpenSCAD_Model
  facet normal -1 -0 -0
    outer loop
      vertex -6 -6 -1.5
      vertex -6 -6 1.5
      vertex -6 6 -1.5
    endloop
  endfacet
  facet normal -1 0 0
    outer loop
      vertex -6 6 -1.5
      vertex -6 -6 1.5
      vertex -6 6 1.5
    endloop
  endfacet
  facet normal 0 -1 0
    outer loop
      vertex -6 -6 1.5
      vertex -6 -6 -1.5
      vertex 6 -6 -1.5
    endloop
  endfacet
  facet normal 0 -1 0
    outer loop
      vertex 6 -6 1.5
      vertex -6 -6 1.5
      vertex 6 -6 -1.5
    endloop
  endfacet
  facet normal 0 -0 -1
    outer loop
      vertex -3 3 -1.5
      vertex -6 6 -1.5
      vertex 6 6 -1.5
    endloop
  endfacet
  facet normal 0 -0 -1
    outer loop
      vertex -6 -6 -1.5
      vertex -6 6 -1.5
      vertex -4.5 -1 -1.5
    endloop
  endfacet
  facet normal 0 0 -1
    outer loop
      vertex -3 3 -1.5
      vertex 3 -3 -1.5
      vertex -3 1 -1.5
    endloop
  endfacet
  facet normal 0 0 -1
    outer loop
      vertex -6 -6 -1.5
      vertex -4.5 -1 -1.5
      vertex -4.5 -3 -1.5
    endloop
  endfacet
  facet normal -0 0 -1
    outer loop
      vertex -6 -6 -1.5
      vertex -4.5 -3 -1.5
      vertex 6 -6 -1.5
    endloop
  endfacet
  facet normal 0 0 -1
    outer loop
      vertex -4.5 -3 -1.5
      vertex -3 -3 -1.5
      vertex 6 -6 -1.5
    endloop
  endfacet
  facet normal 0 0 -1
    outer loop
      vertex -3 1 -1.5
      vertex -3 -1 -1.5
      vertex -4.5 1 -1.5
    endloop
  endfacet
  facet normal 0 0 -1
    outer loop
      vertex -4.5 1 -1.5
      vertex -6 6 -1.5
      vertex -4.5 3 -1.5
    endloop
  endfacet
  facet normal 0 0 -1
    outer loop
      vertex -4.5 -1 -1.5
      vertex -6 6 -1.5
      vertex -4.5 1 -1.5
    endloop
  endfacet
  facet normal -0 -0 -1
    outer loop
      vertex -4.5 -1 -1.5
      vertex -4.5 1 -1.5
      vertex -3 -1 -1.5
    endloop
  endfacet
  facet normal 0 0 -1
    outer loop
      vertex 3 -3 -1.5
      vertex 6 -6 -1.5
      vertex -3 1 -1.5
    endloop
  endfacet
  facet normal -0 -0 -1
    outer loop
      vertex -3 -1 -1.5
      vertex -3 1 -1.5
      vertex 6 -6 -1.5
    endloop
  endfacet
  facet normal -0 -0 -1
    outer loop
      vertex -4.5 3 -1.5
      vertex -6 6 -1.5
      vertex -3 3 -1.5
    endloop
  endfacet
  facet normal 0 -0 -1
    outer loop
      vertex 3 3 -1.5
      vertex -3 3 -1.5
      vertex 6 6 -1.5
    endloop
  endfacet
  facet normal 0 0 -1
    outer loop
      vertex 3 -3 -1.5
      vertex -3 3 -1.5
      vertex 3 -1 -1.5
    endloop
  endfacet
  facet normal 0 0 -1
    outer loop
      vertex 4.5 -3 -1.5
      vertex 6 -6 -1.5
      vertex 3 -3 -1.5
    endloop
  endfacet
  facet normal -0 0 -1
    outer loop
      vertex 3 3 -1.5
      vertex 6 6 -1.5
      vertex 4.5 3 -1.5
    endloop
  endfacet
  facet normal 0 0 -1
    outer loop
      vertex 6 -6 -1.5
      vertex 4.5 -3 -1.5
      vertex 6 6 -1.5
    endloop
  endfacet
  facet normal 0 -0 -1
    outer loop
      vertex 4.5 -3 -1.5
      vertex 4.5 -1 -1.5
      vertex 6 6 -1.5
    endloop
  endfacet
  facet normal 0 0 -1
    outer loop
      vertex 3 -1 -1.5
      vertex -3 3 -1.5
      vertex 3 1 -1.5
    endloop
  endfacet
  facet normal 0 0 -1
    outer loop
      vertex 4.5 1 -1.5
      vertex 3 -1 -1.5
      vertex 3 1 -1.5
    endloop
  endfacet
  facet normal 0 0 -1
    outer loop
      vertex -3 3 -1.5
      vertex 3 3 -1.5
      vertex 3 1 -1.5
    endloop
  endfacet
  facet normal -0 0 -1
    outer loop
      vertex 4.5 3 -1.5
      vertex 6 6 -1.5
      vertex 4.5 1 -1.5
    endloop
  endfacet
  facet normal 0 0 -1
    outer loop
      vertex 4.5 -1 -1.5
      vertex 3 -1 -1.5
      vertex 4.5 1 -1.5
    endloop
  endfacet
  facet normal 0 -0 -1
    outer loop
      vertex 4.5 -1 -1.5
      vertex 4.5 1 -1.5
      vertex 6 6 -1.5
    endloop
  endfacet
  facet normal 0 0 -1
    outer loop
      vertex -3 -1 -1.5
      vertex 6 -6 -1.5
      vertex -3 -3 -1.5
    endloop
  endfacet
  facet normal 0 1 0
    outer loop
      vertex -6 6 -1.5
      vertex -6 6 1.5
      vertex 6 6 -1.5
    endloop
  endfacet
  facet normal 0 1 0
    outer loop
      vertex 6 6 -1.5
      vertex -6 6 1.5
      vertex 6 6 1.5
    endloop
  endfacet
  facet normal 0 -0 1
    outer loop
      vertex -4.5 -3 1.5
      vertex -6 -6 1.5
      vertex 6 -6 1.5
    endloop
  endfacet
  facet normal -0 -0 1
    outer loop
      vertex -3 -3.25 1.5
      vertex -4.5 -3 1.5
      vertex 6 -6 1.5
    endloop
  endfacet
  facet normal 0 -0 1
    outer loop
      vertex -6 6 1.5
      vertex -6 -6 1.5
      vertex -4.5 -3 1.5
    endloop
  endfacet
  facet normal 0 0 1
    outer loop
      vertex -6 6 1.5
      vertex -4.5 -3 1.5
      vertex -4.5 -1 1.5
    endloop
  endfacet
  facet normal 0 -0 1
    outer loop
      vertex -4.5 1 1.5
      vertex -4.5 -1 1.5
      vertex -3 -1 1.5
    endloop
  endfacet
  facet normal 0 0 1
    outer loop
      vertex -6 6 1.5
      vertex -4.5 -1 1.5
      vertex -4.5 1 1.5
    endloop
  endfacet
  facet normal 0 0 1
    outer loop
      vertex -3 3.25 1.5
      vertex 3 3.25 1.5
      vertex 6 6 1.5
    endloop
  endfacet
  facet normal 0 0 1
    outer loop
      vertex -4.5 3 1.5
      vertex -3 3 1.5
      vertex -6 6 1.5
    endloop
  endfacet
  facet normal -0 0 1
    outer loop
      vertex -3 3.25 1.5
      vertex -6 6 1.5
      vertex -3 3 1.5
    endloop
  endfacet
  facet normal 0 0 1
    outer loop
      vertex 3 -1 1.5
      vertex 4.5 -1 1.5
      vertex 3 1 1.5
    endloop
  endfacet
  facet normal 0 0 1
    outer loop
      vertex 6 6 1.5
      vertex -6 6 1.5
      vertex -3 3.25 1.5
    endloop
  endfacet
  facet normal 0 0 1
    outer loop
      vertex 4.5 1 1.5
      vertex 3 1 1.5
      vertex 4.5 -1 1.5
    endloop
  endfacet
  facet normal 0 0 1
    outer loop
      vertex 6 6 1.5
      vertex 4.5 3 1.5
      vertex 6 -6 1.5
    endloop
  endfacet
  facet normal 0 0 1
    outer loop
      vertex 6 6 1.5
      vertex 3 3.25 1.5
      vertex 4.5 3 1.5
    endloop
  endfacet
  facet normal 0 -0 1
    outer loop
      vertex 4.5 3 1.5
      vertex 4.5 1 1.5
      vertex 6 -6 1.5
    endloop
  endfacet
  facet normal 0 -0 1
    outer loop
      vertex 4.5 -1 1.5
      vertex 4.5 -3 1.5
      vertex 6 -6 1.5
    endloop
  endfacet
  facet normal 0 -0 1
    outer loop
      vertex 4.5 1 1.5
      vertex 4.5 -1 1.5
      vertex 6 -6 1.5
    endloop
  endfacet
  facet normal 0 -0 1
    outer loop
      vertex 4.5 -3 1.5
      vertex 3 -3 1.5
      vertex 6 -6 1.5
    endloop
  endfacet
  facet normal 0 -0 1
    outer loop
      vertex 3 -3 1.5
      vertex 3 -3.25 1.5
      vertex 6 -6 1.5
    endloop
  endfacet
  facet normal 0 0 1
    outer loop
      vertex -4.5 1 1.5
      vertex -4.5 3 1.5
      vertex -6 6 1.5
    endloop
  endfacet
  facet normal 0 0 1
    outer loop
      vertex -3 -3 1.5
      vertex -4.5 -3 1.5
      vertex -3 -3.25 1.5
    endloop
  endfacet
  facet normal 0 0 1
    outer loop
      vertex -3 1 1.5
      vertex -4.5 1 1.5
      vertex -3 -1 1.5
    endloop
  endfacet
  facet normal 0 0 1
    outer loop
      vertex 3 3 1.5
      vertex 4.5 3 1.5
      vertex 3 3.25 1.5
    endloop
  endfacet
  facet normal 0 -0 1
    outer loop
      vertex 3 -3.25 1.5
      vertex -3 -3.25 1.5
      vertex 6 -6 1.5
    endloop
  endfacet
  facet normal 1 0 -0
    outer loop
      vertex 6 -6 1.5
      vertex 6 -6 -1.5
      vertex 6 6 -1.5
    endloop
  endfacet
  facet normal 1 0 0
    outer loop
      vertex 6 6 1.5
      vertex 6 -6 1.5
      vertex 6 6 -1.5
    endloop
  endfacet
  facet normal 1 0 0
    outer loop
      vertex -4.5 -1 -1.5
      vertex -4.5 -1 1.5
      vertex -4.5 -3 1.5
    endloop
  endfacet
  facet normal 1 0 0
    outer loop
      vertex -4.5 -3 -1.5
      vertex -4.5 -1 -1.5
      vertex -4.5 -3 1.5
    endloop
  endfacet
  facet normal 0 -1 0
    outer loop
      vertex -3 -1 0.5
      vertex -3 -1 1.5
      vertex -4.5 -1 1.5
    endloop
  endfacet
  facet normal 0 -1 0
    outer loop
      vertex -3 -1 -1.5
      vertex -3 -1 0.5
      vertex -4.5 -1 1.5
    endloop
  endfacet
  facet normal -0 -1 -0
    outer loop
      vertex -4.5 -1 -1.5
      vertex -3 -1 -1.5
      vertex -4.5 -1 1.5
    endloop
  endfacet
  facet normal -1 -0 -0
    outer loop
      vertex -3 -3 -1.5
      vertex -3 -3 0.5
      vertex -3 -1 -1.5
    endloop
  endfacet
  facet normal -1 0 0
    outer loop
      vertex -3 -1 -1.5
      vertex -3 -3 0.5
      vertex -3 -1 0.5
    endloop
  endfacet
  facet normal 0 1 0
    outer loop
      vertex -3 -3 1.5
      vertex -3 -3 0.5
      vertex -4.5 -3 1.5
    endloop
  endfacet
  facet normal 0 1 0
    outer loop
      vertex -4.5 -3 1.5
      vertex -3 -3 0.5
      vertex -3 -3 -1.5
    endloop
  endfacet
  facet normal 0 1 -0
    outer loop
      vertex -4.5 -3 1.5
      vertex -3 -3 -1.5
      vertex -4.5 -3 -1.5
    endloop
  endfacet
  facet normal 1 0 0
    outer loop
      vertex -4.5 3 -1.5
      vertex -4.5 3 1.5
      vertex -4.5 1 1.5
    endloop
  endfacet
  facet normal 1 0 0
    outer loop
      vertex -4.5 1 -1.5
      vertex -4.5 3 -1.5
      vertex -4.5 1 1.5
    endloop
  endfacet
  facet normal 0 -1 0
    outer loop
      vertex -3 3 0.5
      vertex -3 3 1.5
      vertex -4.5 3 1.5
    endloop
  endfacet
  facet normal 0 -1 0
    outer loop
      vertex -3 3 -1.5
      vertex -3 3 0.5
      vertex -4.5 3 1.5
    endloop
  endfacet
  facet normal -0 -1 -0
    outer loop
      vertex -4.5 3 -1.5
      vertex -3 3 -1.5
      vertex -4.5 3 1.5
    endloop
  endfacet
  facet normal -1 -0 -0
    outer loop
      vertex -3 1 -1.5
      vertex -3 1 0.5
      vertex -3 3 -1.5
    endloop
  endfacet
  facet normal -1 0 0
    outer loop
      vertex -3 3 -1.5
      vertex -3 1 0.5
      vertex -3 3 0.5
    endloop
  endfacet
  facet normal 0 1 0
    outer loop
      vertex -3 1 1.5
      vertex -3 1 0.5
      vertex -4.5 1 1.5
    endloop
  endfacet
  facet normal 0 1 0
    outer loop
      vertex -4.5 1 1.5
      vertex -3 1 0.5
      vertex -3 1 -1.5
    endloop
  endfacet
  facet normal 0 1 -0
    outer loop
      vertex -4.5 1 1.5
      vertex -3 1 -1.5
      vertex -4.5 1 -1.5
    endloop
  endfacet
  facet normal 0 -1 0
    outer loop
      vertex 4.5 -1 -1.5
      vertex 4.5 -1 1.5
      vertex 3 -1 1.5
    endloop
  endfacet
  facet normal -0 -1 -0
    outer loop
      vertex 3 -1 -1.5
      vertex 4.5 -1 -1.5
      vertex 3 -1 0.5
    endloop
  endfacet
  facet normal -0 -1 -0
    outer loop
      vertex 3 -1 0.5
      vertex 4.5 -1 -1.5
      vertex 3 -1 1.5
    endloop
  endfacet
  facet normal 1 0 -0
    outer loop
      vertex 3 -3 0.5
      vertex 3 -3 -1.5
      vertex 3 -1 -1.5
    endloop
  endfacet
  facet normal 1 0 0
    outer loop
      vertex 3 -1 0.5
      vertex 3 -3 0.5
      vertex 3 -1 -1.5
    endloop
  endfacet
  facet normal -1 0 0
    outer loop
      vertex 4.5 -1 1.5
      vertex 4.5 -1 -1.5
      vertex 4.5 -3 1.5
    endloop
  endfacet
  facet normal -1 0 0
    outer loop
      vertex 4.5 -3 1.5
      vertex 4.5 -1 -1.5
      vertex 4.5 -3 -1.5
    endloop
  endfacet
  facet normal 0 1 -0
    outer loop
      vertex 3 -3 1.5
      vertex 4.5 -3 1.5
      vertex 3 -3 0.5
    endloop
  endfacet
  facet normal 0 1 0
    outer loop
      vertex 3 -3 0.5
      vertex 4.5 -3 1.5
      vertex 4.5 -3 -1.5
    endloop
  endfacet
  facet normal 0 1 -0
    outer loop
      vertex 3 -3 0.5
      vertex 4.5 -3 -1.5
      vertex 3 -3 -1.5
    endloop
  endfacet
  facet normal 1 0 -0
    outer loop
      vertex 3 1 0.5
      vertex 3 1 -1.5
      vertex 3 3 -1.5
    endloop
  endfacet
  facet normal 1 0 0
    outer loop
      vertex 3 3 0.5
      vertex 3 1 0.5
      vertex 3 3 -1.5
    endloop
  endfacet
  facet normal 0 -1 0
    outer loop
      vertex 4.5 3 -1.5
      vertex 4.5 3 1.5
      vertex 3 3 1.5
    endloop
  endfacet
  facet normal -0 -1 -0
    outer loop
      vertex 3 3 -1.5
      vertex 4.5 3 -1.5
      vertex 3 3 0.5
    endloop
  endfacet
  facet normal -0 -1 -0
    outer loop
      vertex 3 3 0.5
      vertex 4.5 3 -1.5
      vertex 3 3 1.5
    endloop
  endfacet
  facet normal -1 0 0
    outer loop
      vertex 4.5 3 1.5
      vertex 4.5 3 -1.5
      vertex 4.5 1 1.5
    endloop
  endfacet
  facet normal -1 0 0
    outer loop
      vertex 4.5 1 1.5
      vertex 4.5 3 -1.5
      vertex 4.5 1 -1.5
    endloop
  endfacet
  facet normal 0 1 -0
    outer loop
      vertex 3 1 1.5
      vertex 4.5 1 1.5
      vertex 3 1 0.5
    endloop
  endfacet
  facet normal 0 1 0
    outer loop
      vertex 3 1 0.5
      vertex 4.5 1 1.5
      vertex 4.5 1 -1.5
    endloop
  endfacet
  facet normal 0 1 -0
    outer loop
      vertex 3 1 0.5
      vertex 4.5 1 -1.5
      vertex 3 1 -1.5
    endloop
  endfacet
  facet normal 1 0 0
    outer loop
      vertex -3 -3 0.5
      vertex -3 -3 1.5
      vertex -3 -3.25 1.5
    endloop
  endfacet
  facet normal 1 0 0
    outer loop
      vertex -3 -3.25 0.5
      vertex -3 -3 0.5
      vertex -3 -3.25 1.5
    endloop
  endfacet
  facet normal 0 1 0
    outer loop
      vertex 3 -3.25 1.5
      vertex 3 -3.25 0.5
      vertex -3 -3.25 1.5
    endloop
  endfacet
  facet normal 0 1 -0
    outer loop
      vertex -3 -3.25 1.5
      vertex 3 -3.25 0.5
      vertex -3 -3.25 0.5
    endloop
  endfacet
  facet normal -1 0 0
    outer loop
      vertex 3 -3 1.5
      vertex 3 -3 0.5
      vertex 3 -3.25 1.5
    endloop
  endfacet
  facet normal -1 0 0
    outer loop
      vertex 3 -3.25 1.5
      vertex 3 -3 0.5
      vertex 3 -3.25 0.5
    endloop
  endfacet
  facet normal -1 0 0
    outer loop
      vertex 3 1 1.5
      vertex 3 1 0.5
      vertex 3 -1 1.5
    endloop
  endfacet
  facet normal -1 0 0
    outer loop
      vertex 3 -1 1.5
      vertex 3 1 0.5
      vertex 3 -1 0.5
    endloop
  endfacet
  facet normal -1 0 0
    outer loop
      vertex 3 3.25 1.5
      vertex 3 3.25 0.5
      vertex 3 3 1.5
    endloop
  endfacet
  facet normal -1 0 0
    outer loop
      vertex 3 3 1.5
      vertex 3 3.25 0.5
      vertex 3 3 0.5
    endloop
  endfacet
  facet normal 0 -1 0
    outer loop
      vertex 3 3.25 0.5
      vertex 3 3.25 1.5
      vertex -3 3.25 1.5
    endloop
  endfacet
  facet normal -0 -1 -0
    outer loop
      vertex -3 3.25 0.5
      vertex 3 3.25 0.5
      vertex -3 3.25 1.5
    endloop
  endfacet
  facet normal 1 0 0
    outer loop
      vertex -3 3.25 0.5
      vertex -3 3.25 1.5
      vertex -3 3 1.5
    endloop
  endfacet
  facet normal 1 0 0
    outer loop
      vertex -3 3 0.5
      vertex -3 3.25 0.5
      vertex -3 3 1.5
    endloop
  endfacet
  facet normal 1 0 0
    outer loop
      vertex -3 1 0.5
      vertex -3 1 1.5
      vertex -3 -1 1.5
    endloop
  endfacet
  facet normal 1 0 0
    outer loop
      vertex -3 -1 0.5
      vertex -3 1 0.5
      vertex -3 -1 1.5
    endloop
  endfacet
  facet normal 0 0 1
    outer loop
      vertex 3 -3 0.5
      vertex 3 -1 0.5
      vertex -3 3.25 0.5
    endloop
  endfacet
  facet normal 0 0 1
    outer loop
      vertex 3 -3.25 0.5
      vertex 3 -3 0.5
      vertex -3 3.25 0.5
    endloop
  endfacet
  facet normal 0 0 1
    outer loop
      vertex 3 -1 0.5
      vertex 3 1 0.5
      vertex -3 3.25 0.5
    endloop
  endfacet
  facet normal 0 0 1
    outer loop
      vertex -3 3 0.5
      vertex 3 -3.25 0.5
      vertex -3 3.25 0.5
    endloop
  endfacet
  facet normal 0 0 1
    outer loop
      vertex 3 1 0.5
      vertex 3 3 0.5
      vertex -3 3.25 0.5
    endloop
  endfacet
  facet normal 0 0 1
    outer loop
      vertex 3 3 0.5
      vertex 3 3.25 0.5
      vertex -3 3.25 0.5
    endloop
  endfacet
  facet normal 0 0 1
    outer loop
      vertex -3 1 0.5
      vertex 3 -3.25 0.5
      vertex -3 3 0.5
    endloop
  endfacet
  facet normal 0 0 1
    outer loop
      vertex -3 -1 0.5
      vertex 3 -3.25 0.5
      vertex -3 1 0.5
    endloop
  endfacet
  facet normal 0 0 1
    outer loop
      vertex -3 -3 0.5
      vertex 3 -3.25 0.5
      vertex -3 -1 0.5
    endloop
  endfacet
  facet normal 0 0 1
    outer loop
      vertex -3 -3.25 0.5
      vertex 3 -3.25 0.5
      vertex -3 -3 0.5
    endloop
  endfacet
endsolid OpenSCAD_Model
