solid OpenSCAD_Model
  facet normal -0 0 -1
    outer loop
      vertex -15 0 0
      vertex -14.8817 1.88 0
      vertex -14.8817 -1.88 0
    endloop
  endfacet
  facet normal 0 -0 -1
    outer loop
      vertex -14.8817 -1.88 0
      vertex -14.8817 1.88 0
      vertex -14.5287 3.73035 0
    endloop
  endfacet
  facet normal 0 0 -1
    outer loop
      vertex -14.8817 -1.88 0
      vertex -14.5287 3.73035 0
      vertex -13.9466 5.52187 0
    endloop
  endfacet
  facet normal 0 0 -1
    outer loop
      vertex -14.8817 -1.88 0
      vertex -13.9466 5.52187 0
      vertex -13.1446 7.2263 0
    endloop
  endfacet
  facet normal 0 0 -1
    outer loop
      vertex -14.8817 -1.88 0
      vertex -13.1446 7.2263 0
      vertex -12.1353 8.81678 0
    endloop
  endfacet
  facet normal 0 0 -1
    outer loop
      vertex -14.8817 -1.88 0
      vertex -12.1353 8.81678 0
      vertex -10.9345 10.2682 0
    endloop
  endfacet
  facet normal 0 0 -1
    outer loop
      vertex -14.8817 -1.88 0
      vertex -10.9345 10.2682 0
      vertex -9.56136 11.5577 0
    endloop
  endfacet
  facet normal 0 0 -1
    outer loop
      vertex -14.8817 -1.88 0
      vertex -9.56136 11.5577 0
      vertex -8.0374 12.6649 0
    endloop
  endfacet
  facet normal 0 0 -1
    outer loop
      vertex -14.8817 -1.88 0
      vertex -8.0374 12.6649 0
      vertex -6.38669 13.5724 0
    endloop
  endfacet
  facet normal 0 0 -1
    outer loop
      vertex -14.8817 -1.88 0
      vertex -6.38669 13.5724 0
      vertex -4.63525 14.2658 0
    endloop
  endfacet
  facet normal 0 0 -1
    outer loop
      vertex -14.8817 -1.88 0
      vertex -4.63525 14.2658 0
      vertex -2.81072 14.7343 0
    endloop
  endfacet
  facet normal 0 0 -1
    outer loop
      vertex -14.8817 -1.88 0
      vertex -2.81072 14.7343 0
      vertex -0.941858 14.9704 0
    endloop
  endfacet
  facet normal 0 0 -1
    outer loop
      vertex -14.8817 -1.88 0
      vertex -0.941858 14.9704 0
      vertex 0.941858 14.9704 0
    endloop
  endfacet
  facet normal 0 0 -1
    outer loop
      vertex -14.8817 -1.88 0
      vertex 0.941858 14.9704 0
      vertex 2.81072 14.7343 0
    endloop
  endfacet
  facet normal 0 0 -1
    outer loop
      vertex -14.8817 -1.88 0
      vertex 2.81072 14.7343 0
      vertex 4.63525 14.2658 0
    endloop
  endfacet
  facet normal 0 0 -1
    outer loop
      vertex -14.8817 -1.88 0
      vertex 4.63525 14.2658 0
      vertex 6.38669 13.5724 0
    endloop
  endfacet
  facet normal 0 0 -1
    outer loop
      vertex -14.8817 -1.88 0
      vertex 6.38669 13.5724 0
      vertex 8.0374 12.6649 0
    endloop
  endfacet
  facet normal 0 0 -1
    outer loop
      vertex -14.8817 -1.88 0
      vertex 8.0374 12.6649 0
      vertex 9.56136 11.5577 0
    endloop
  endfacet
  facet normal 0 0 -1
    outer loop
      vertex -14.8817 -1.88 0
      vertex 9.56136 11.5577 0
      vertex 10.9345 10.2682 0
    endloop
  endfacet
  facet normal 0 0 -1
    outer loop
      vertex -14.8817 -1.88 0
      vertex 10.9345 10.2682 0
      vertex 12.1353 8.81678 0
    endloop
  endfacet
  facet normal 0 0 -1
    outer loop
      vertex -14.8817 -1.88 0
      vertex 12.1353 8.81678 0
      vertex 13.1446 7.2263 0
    endloop
  endfacet
  facet normal 0 0 -1
    outer loop
      vertex -14.8817 -1.88 0
      vertex 13.1446 7.2263 0
      vertex 13.9466 5.52187 0
    endloop
  endfacet
  facet normal 0 0 -1
    outer loop
      vertex -14.8817 -1.88 0
      vertex 13.9466 5.52187 0
      vertex 14.5287 3.73035 0
    endloop
  endfacet
  facet normal 0 0 -1
    outer loop
      vertex -14.8817 -1.88 0
      vertex 14.5287 3.73035 0
      vertex 14.8817 1.88 0
    endloop
  endfacet
  facet normal 0 0 -1
    outer loop
      vertex -14.8817 -1.88 0
      vertex 14.8817 1.88 0
      vertex 15 0 0
    endloop
  endfacet
  facet normal -0 0 -1
    outer loop
      vertex -14.8817 -1.88 0
      vertex 15 0 0
      vertex 14.8817 -1.88 0
    endloop
  endfacet
  facet normal 0 0 -1
    outer loop
      vertex -14.8817 -1.88 0
      vertex 14.8817 -1.88 0
      vertex 14.5287 -3.73035 0
    endloop
  endfacet
  facet normal 0 0 -1
    outer loop
      vertex -14.8817 -1.88 0
      vertex 14.5287 -3.73035 0
      vertex 13.9466 -5.52187 0
    endloop
  endfacet
  facet normal 0 0 -1
    outer loop
      vertex -14.8817 -1.88 0
      vertex 13.9466 -5.52187 0
      vertex 13.1446 -7.2263 0
    endloop
  endfacet
  facet normal 0 0 -1
    outer loop
      vertex -14.8817 -1.88 0
      vertex 13.1446 -7.2263 0
      vertex 12.1353 -8.81678 0
    endloop
  endfacet
  facet normal 0 0 -1
    outer loop
      vertex -14.8817 -1.88 0
      vertex 12.1353 -8.81678 0
      vertex 10.9345 -10.2682 0
    endloop
  endfacet
  facet normal 0 0 -1
    outer loop
      vertex -14.8817 -1.88 0
      vertex 10.9345 -10.2682 0
      vertex 9.56136 -11.5577 0
    endloop
  endfacet
  facet normal 0 0 -1
    outer loop
      vertex -14.8817 -1.88 0
      vertex 9.56136 -11.5577 0
      vertex 8.0374 -12.6649 0
    endloop
  endfacet
  facet normal 0 0 -1
    outer loop
      vertex -14.8817 -1.88 0
      vertex 8.0374 -12.6649 0
      vertex 6.38669 -13.5724 0
    endloop
  endfacet
  facet normal 0 0 -1
    outer loop
      vertex -14.8817 -1.88 0
      vertex 6.38669 -13.5724 0
      vertex 4.63525 -14.2658 0
    endloop
  endfacet
  facet normal 0 0 -1
    outer loop
      vertex -14.8817 -1.88 0
      vertex 4.63525 -14.2658 0
      vertex 2.81072 -14.7343 0
    endloop
  endfacet
  facet normal 0 0 -1
    outer loop
      vertex -14.8817 -1.88 0
      vertex 2.81072 -14.7343 0
      vertex 0.941858 -14.9704 0
    endloop
  endfacet
  facet normal 0 0 -1
    outer loop
      vertex -14.8817 -1.88 0
      vertex 0.941858 -14.9704 0
      vertex -0.941858 -14.9704 0
    endloop
  endfacet
  facet normal 0 0 -1
    outer loop
      vertex -14.8817 -1.88 0
      vertex -0.941858 -14.9704 0
      vertex -2.81072 -14.7343 0
    endloop
  endfacet
  facet normal 0 0 -1
    outer loop
      vertex -14.8817 -1.88 0
      vertex -2.81072 -14.7343 0
      vertex -4.63525 -14.2658 0
    endloop
  endfacet
  facet normal 0 0 -1
    outer loop
      vertex -14.8817 -1.88 0
      vertex -4.63525 -14.2658 0
      vertex -6.38669 -13.5724 0
    endloop
  endfacet
  facet normal 0 0 -1
    outer loop
      vertex -14.8817 -1.88 0
      vertex -6.38669 -13.5724 0
      vertex -8.0374 -12.6649 0
    endloop
  endfacet
  facet normal 0 0 -1
    outer loop
      vertex -14.8817 -1.88 0
      vertex -8.0374 -12.6649 0
      vertex -9.56136 -11.5577 0
    endloop
  endfacet
  facet normal 0 0 -1
    outer loop
      vertex -14.8817 -1.88 0
      vertex -9.56136 -11.5577 0
      vertex -10.9345 -10.2682 0
    endloop
  endfacet
  facet normal 0 0 -1
    outer loop
      vertex -14.8817 -1.88 0
      vertex -10.9345 -10.2682 0
      vertex -12.1353 -8.81678 0
    endloop
  endfacet
  facet normal 0 0 -1
    outer loop
      vertex -14.8817 -1.88 0
      vertex -12.1353 -8.81678 0
      vertex -13.1446 -7.2263 0
    endloop
  endfacet
  facet normal 0 0 -1
    outer loop
      vertex -14.8817 -1.88 0
      vertex -13.1446 -7.2263 0
      vertex -13.9466 -5.52187 0
    endloop
  endfacet
  facet normal 0 0 -1
    outer loop
      vertex -14.8817 -1.88 0
      vertex -13.9466 -5.52187 0
      vertex -14.5287 -3.73035 0
    endloop
  endfacet
  facet normal -0.998027 0.0627902 0
    outer loop
      vertex -15 0 0
      vertex -15 0 8
      vertex -14.8817 1.88 0
    endloop
  endfacet
  facet normal -0.998027 0.0627902 0
    outer loop
      vertex -14.8817 1.88 0
      vertex -15 0 8
      vertex -14.8817 1.88 8
    endloop
  endfacet
  facet normal -0.998027 -0.0627902 -0
    outer loop
      vertex -15 0 0
      vertex -14.8817 -1.88 0
      vertex -15 0 8
    endloop
  endfacet
  facet normal -0.998027 -0.0627902 0
    outer loop
      vertex -15 0 8
      vertex -14.8817 -1.88 0
      vertex -14.8817 -1.88 8
    endloop
  endfacet
  facet normal -0.982287 -0.187382 -0
    outer loop
      vertex -14.8817 -1.88 0
      vertex -14.5287 -3.73035 0
      vertex -14.8817 -1.88 8
    endloop
  endfacet
  facet normal -0.982287 -0.187382 0
    outer loop
      vertex -14.8817 -1.88 8
      vertex -14.5287 -3.73035 0
      vertex -14.5287 -3.73035 8
    endloop
  endfacet
  facet normal -0.951057 -0.309017 -0
    outer loop
      vertex -14.5287 -3.73035 0
      vertex -13.9466 -5.52187 0
      vertex -14.5287 -3.73035 8
    endloop
  endfacet
  facet normal -0.951057 -0.309017 0
    outer loop
      vertex -14.5287 -3.73035 8
      vertex -13.9466 -5.52187 0
      vertex -13.9466 -5.52187 8
    endloop
  endfacet
  facet normal -0.904827 -0.425779 -0
    outer loop
      vertex -13.9466 -5.52187 0
      vertex -13.1446 -7.2263 0
      vertex -13.9466 -5.52187 8
    endloop
  endfacet
  facet normal -0.904827 -0.425779 0
    outer loop
      vertex -13.9466 -5.52187 8
      vertex -13.1446 -7.2263 0
      vertex -13.1446 -7.2263 8
    endloop
  endfacet
  facet normal -0.844328 -0.535827 -0
    outer loop
      vertex -13.1446 -7.2263 0
      vertex -12.1353 -8.81678 0
      vertex -13.1446 -7.2263 8
    endloop
  endfacet
  facet normal -0.844328 -0.535827 0
    outer loop
      vertex -13.1446 -7.2263 8
      vertex -12.1353 -8.81678 0
      vertex -12.1353 -8.81678 8
    endloop
  endfacet
  facet normal -0.770513 -0.637424 -0
    outer loop
      vertex -12.1353 -8.81678 0
      vertex -10.9345 -10.2682 0
      vertex -12.1353 -8.81678 8
    endloop
  endfacet
  facet normal -0.770513 -0.637424 0
    outer loop
      vertex -12.1353 -8.81678 8
      vertex -10.9345 -10.2682 0
      vertex -10.9345 -10.2682 8
    endloop
  endfacet
  facet normal -0.684547 -0.728969 0
    outer loop
      vertex -10.9345 -10.2682 8
      vertex -10.9345 -10.2682 0
      vertex -9.56136 -11.5577 0
    endloop
  endfacet
  facet normal -0.684547 -0.728969 0
    outer loop
      vertex -9.56136 -11.5577 8
      vertex -10.9345 -10.2682 8
      vertex -9.56136 -11.5577 0
    endloop
  endfacet
  facet normal -0.587785 -0.809017 0
    outer loop
      vertex -9.56136 -11.5577 8
      vertex -9.56136 -11.5577 0
      vertex -8.0374 -12.6649 0
    endloop
  endfacet
  facet normal -0.587785 -0.809017 0
    outer loop
      vertex -8.0374 -12.6649 8
      vertex -9.56136 -11.5577 8
      vertex -8.0374 -12.6649 0
    endloop
  endfacet
  facet normal -0.481754 -0.876307 0
    outer loop
      vertex -8.0374 -12.6649 8
      vertex -8.0374 -12.6649 0
      vertex -6.38669 -13.5724 0
    endloop
  endfacet
  facet normal -0.481754 -0.876307 0
    outer loop
      vertex -6.38669 -13.5724 8
      vertex -8.0374 -12.6649 8
      vertex -6.38669 -13.5724 0
    endloop
  endfacet
  facet normal -0.368125 -0.929776 0
    outer loop
      vertex -6.38669 -13.5724 8
      vertex -6.38669 -13.5724 0
      vertex -4.63525 -14.2658 0
    endloop
  endfacet
  facet normal -0.368125 -0.929776 0
    outer loop
      vertex -4.63525 -14.2658 8
      vertex -6.38669 -13.5724 8
      vertex -4.63525 -14.2658 0
    endloop
  endfacet
  facet normal -0.24869 -0.968583 0
    outer loop
      vertex -4.63525 -14.2658 8
      vertex -4.63525 -14.2658 0
      vertex -2.81072 -14.7343 0
    endloop
  endfacet
  facet normal -0.24869 -0.968583 0
    outer loop
      vertex -2.81072 -14.7343 8
      vertex -4.63525 -14.2658 8
      vertex -2.81072 -14.7343 0
    endloop
  endfacet
  facet normal -0.125333 -0.992115 0
    outer loop
      vertex -2.81072 -14.7343 8
      vertex -2.81072 -14.7343 0
      vertex -0.941858 -14.9704 0
    endloop
  endfacet
  facet normal -0.125333 -0.992115 0
    outer loop
      vertex -0.941858 -14.9704 8
      vertex -2.81072 -14.7343 8
      vertex -0.941858 -14.9704 0
    endloop
  endfacet
  facet normal 0 -1 0
    outer loop
      vertex -0.941858 -14.9704 8
      vertex -0.941858 -14.9704 0
      vertex 0.941858 -14.9704 0
    endloop
  endfacet
  facet normal 0 -1 0
    outer loop
      vertex 0.941858 -14.9704 8
      vertex -0.941858 -14.9704 8
      vertex 0.941858 -14.9704 0
    endloop
  endfacet
  facet normal 0.125333 -0.992115 0
    outer loop
      vertex 0.941858 -14.9704 8
      vertex 0.941858 -14.9704 0
      vertex 2.81072 -14.7343 0
    endloop
  endfacet
  facet normal 0.125333 -0.992115 0
    outer loop
      vertex 2.81072 -14.7343 8
      vertex 0.941858 -14.9704 8
      vertex 2.81072 -14.7343 0
    endloop
  endfacet
  facet normal 0.24869 -0.968583 0
    outer loop
      vertex 2.81072 -14.7343 8
      vertex 2.81072 -14.7343 0
      vertex 4.63525 -14.2658 0
    endloop
  endfacet
  facet normal 0.24869 -0.968583 0
    outer loop
      vertex 4.63525 -14.2658 8
      vertex 2.81072 -14.7343 8
      vertex 4.63525 -14.2658 0
    endloop
  endfacet
  facet normal 0.368125 -0.929776 0
    outer loop
      vertex 4.63525 -14.2658 8
      vertex 4.63525 -14.2658 0
      vertex 6.38669 -13.5724 0
    endloop
  endfacet
  facet normal 0.368125 -0.929776 0
    outer loop
      vertex 6.38669 -13.5724 8
      vertex 4.63525 -14.2658 8
      vertex 6.38669 -13.5724 0
    endloop
  endfacet
  facet normal 0.481754 -0.876307 0
    outer loop
      vertex 6.38669 -13.5724 8
      vertex 6.38669 -13.5724 0
      vertex 8.0374 -12.6649 0
    endloop
  endfacet
  facet normal 0.481754 -0.876307 0
    outer loop
      vertex 8.0374 -12.6649 8
      vertex 6.38669 -13.5724 8
      vertex 8.0374 -12.6649 0
    endloop
  endfacet
  facet normal 0.587785 -0.809017 0
    outer loop
      vertex 8.0374 -12.6649 8
      vertex 8.0374 -12.6649 0
      vertex 9.56136 -11.5577 0
    endloop
  endfacet
  facet normal 0.587785 -0.809017 0
    outer loop
      vertex 9.56136 -11.5577 8
      vertex 8.0374 -12.6649 8
      vertex 9.56136 -11.5577 0
    endloop
  endfacet
  facet normal 0.684547 -0.728969 0
    outer loop
      vertex 9.56136 -11.5577 8
      vertex 9.56136 -11.5577 0
      vertex 10.9345 -10.2682 0
    endloop
  endfacet
  facet normal 0.684547 -0.728969 0
    outer loop
      vertex 10.9345 -10.2682 8
      vertex 9.56136 -11.5577 8
      vertex 10.9345 -10.2682 0
    endloop
  endfacet
  facet normal 0.770513 -0.637424 0
    outer loop
      vertex 10.9345 -10.2682 8
      vertex 10.9345 -10.2682 0
      vertex 12.1353 -8.81678 0
    endloop
  endfacet
  facet normal 0.770513 -0.637424 0
    outer loop
      vertex 12.1353 -8.81678 8
      vertex 10.9345 -10.2682 8
      vertex 12.1353 -8.81678 0
    endloop
  endfacet
  facet normal 0.844328 -0.535827 0
    outer loop
      vertex 12.1353 -8.81678 8
      vertex 12.1353 -8.81678 0
      vertex 13.1446 -7.2263 0
    endloop
  endfacet
  facet normal 0.844328 -0.535827 0
    outer loop
      vertex 13.1446 -7.2263 8
      vertex 12.1353 -8.81678 8
      vertex 13.1446 -7.2263 0
    endloop
  endfacet
  facet normal 0.904827 -0.425779 0
    outer loop
      vertex 13.1446 -7.2263 8
      vertex 13.1446 -7.2263 0
      vertex 13.9466 -5.52187 0
    endloop
  endfacet
  facet normal 0.904827 -0.425779 0
    outer loop
      vertex 13.9466 -5.52187 8
      vertex 13.1446 -7.2263 8
      vertex 13.9466 -5.52187 0
    endloop
  endfacet
  facet normal 0.951057 -0.309017 0
    outer loop
      vertex 13.9466 -5.52187 8
      vertex 13.9466 -5.52187 0
      vertex 14.5287 -3.73035 0
    endloop
  endfacet
  facet normal 0.951057 -0.309017 0
    outer loop
      vertex 14.5287 -3.73035 8
      vertex 13.9466 -5.52187 8
      vertex 14.5287 -3.73035 0
    endloop
  endfacet
  facet normal 0.982287 -0.187382 0
    outer loop
      vertex 14.5287 -3.73035 8
      vertex 14.5287 -3.73035 0
      vertex 14.8817 -1.88 0
    endloop
  endfacet
  facet normal 0.982287 -0.187382 0
    outer loop
      vertex 14.8817 -1.88 8
      vertex 14.5287 -3.73035 8
      vertex 14.8817 -1.88 0
    endloop
  endfacet
  facet normal 0.998027 -0.0627902 0
    outer loop
      vertex 14.8817 -1.88 8
      vertex 14.8817 -1.88 0
      vertex 15 0 0
    endloop
  endfacet
  facet normal 0.998027 -0.0627902 0
    outer loop
      vertex 15 0 8
      vertex 14.8817 -1.88 8
      vertex 15 0 0
    endloop
  endfacet
  facet normal 0.998027 0.0627902 0
    outer loop
      vertex 15 0 0
      vertex 14.8817 1.88 0
      vertex 14.8817 1.88 8
    endloop
  endfacet
  facet normal 0.998027 0.0627902 -0
    outer loop
      vertex 15 0 8
      vertex 15 0 0
      vertex 14.8817 1.88 8
    endloop
  endfacet
  facet normal 0.982287 0.187382 0
    outer loop
      vertex 14.8817 1.88 0
      vertex 14.5287 3.73035 0
      vertex 14.5287 3.73035 8
    endloop
  endfacet
  facet normal 0.982287 0.187382 -0
    outer loop
      vertex 14.8817 1.88 8
      vertex 14.8817 1.88 0
      vertex 14.5287 3.73035 8
    endloop
  endfacet
  facet normal 0.951057 0.309017 0
    outer loop
      vertex 14.5287 3.73035 0
      vertex 13.9466 5.52187 0
      vertex 13.9466 5.52187 8
    endloop
  endfacet
  facet normal 0.951057 0.309017 -0
    outer loop
      vertex 14.5287 3.73035 8
      vertex 14.5287 3.73035 0
      vertex 13.9466 5.52187 8
    endloop
  endfacet
  facet normal 0.904827 0.425779 0
    outer loop
      vertex 13.9466 5.52187 0
      vertex 13.1446 7.2263 0
      vertex 13.1446 7.2263 8
    endloop
  endfacet
  facet normal 0.904827 0.425779 -0
    outer loop
      vertex 13.9466 5.52187 8
      vertex 13.9466 5.52187 0
      vertex 13.1446 7.2263 8
    endloop
  endfacet
  facet normal 0.844328 0.535827 0
    outer loop
      vertex 13.1446 7.2263 0
      vertex 12.1353 8.81678 0
      vertex 12.1353 8.81678 8
    endloop
  endfacet
  facet normal 0.844328 0.535827 -0
    outer loop
      vertex 13.1446 7.2263 8
      vertex 13.1446 7.2263 0
      vertex 12.1353 8.81678 8
    endloop
  endfacet
  facet normal 0.770513 0.637424 0
    outer loop
      vertex 12.1353 8.81678 0
      vertex 10.9345 10.2682 0
      vertex 10.9345 10.2682 8
    endloop
  endfacet
  facet normal 0.770513 0.637424 -0
    outer loop
      vertex 12.1353 8.81678 8
      vertex 12.1353 8.81678 0
      vertex 10.9345 10.2682 8
    endloop
  endfacet
  facet normal 0.684547 0.728969 0
    outer loop
      vertex 9.56136 11.5577 0
      vertex 9.56136 11.5577 8
      vertex 10.9345 10.2682 0
    endloop
  endfacet
  facet normal 0.684547 0.728969 0
    outer loop
      vertex 10.9345 10.2682 0
      vertex 9.56136 11.5577 8
      vertex 10.9345 10.2682 8
    endloop
  endfacet
  facet normal 0.587785 0.809017 0
    outer loop
      vertex 8.0374 12.6649 0
      vertex 8.0374 12.6649 8
      vertex 9.56136 11.5577 0
    endloop
  endfacet
  facet normal 0.587785 0.809017 0
    outer loop
      vertex 9.56136 11.5577 0
      vertex 8.0374 12.6649 8
      vertex 9.56136 11.5577 8
    endloop
  endfacet
  facet normal 0.481754 0.876307 0
    outer loop
      vertex 6.38669 13.5724 0
      vertex 6.38669 13.5724 8
      vertex 8.0374 12.6649 0
    endloop
  endfacet
  facet normal 0.481754 0.876307 0
    outer loop
      vertex 8.0374 12.6649 0
      vertex 6.38669 13.5724 8
      vertex 8.0374 12.6649 8
    endloop
  endfacet
  facet normal 0.368125 0.929776 0
    outer loop
      vertex 4.63525 14.2658 0
      vertex 4.63525 14.2658 8
      vertex 6.38669 13.5724 0
    endloop
  endfacet
  facet normal 0.368125 0.929776 0
    outer loop
      vertex 6.38669 13.5724 0
      vertex 4.63525 14.2658 8
      vertex 6.38669 13.5724 8
    endloop
  endfacet
  facet normal 0.24869 0.968583 0
    outer loop
      vertex 2.81072 14.7343 0
      vertex 2.81072 14.7343 8
      vertex 4.63525 14.2658 0
    endloop
  endfacet
  facet normal 0.24869 0.968583 0
    outer loop
      vertex 4.63525 14.2658 0
      vertex 2.81072 14.7343 8
      vertex 4.63525 14.2658 8
    endloop
  endfacet
  facet normal 0.125333 0.992115 0
    outer loop
      vertex 0.941858 14.9704 0
      vertex 0.941858 14.9704 8
      vertex 2.81072 14.7343 0
    endloop
  endfacet
  facet normal 0.125333 0.992115 0
    outer loop
      vertex 2.81072 14.7343 0
      vertex 0.941858 14.9704 8
      vertex 2.81072 14.7343 8
    endloop
  endfacet
  facet normal 0 1 0
    outer loop
      vertex -0.941858 14.9704 0
      vertex -0.941858 14.9704 8
      vertex 0.941858 14.9704 0
    endloop
  endfacet
  facet normal 0 1 0
    outer loop
      vertex 0.941858 14.9704 0
      vertex -0.941858 14.9704 8
      vertex 0.941858 14.9704 8
    endloop
  endfacet
  facet normal -0.125333 0.992115 0
    outer loop
      vertex -2.81072 14.7343 0
      vertex -2.81072 14.7343 8
      vertex -0.941858 14.9704 0
    endloop
  endfacet
  facet normal -0.125333 0.992115 0
    outer loop
      vertex -0.941858 14.9704 0
      vertex -2.81072 14.7343 8
      vertex -0.941858 14.9704 8
    endloop
  endfacet
  facet normal -0.24869 0.968583 0
    outer loop
      vertex -4.63525 14.2658 0
      vertex -4.63525 14.2658 8
      vertex -2.81072 14.7343 0
    endloop
  endfacet
  facet normal -0.24869 0.968583 0
    outer loop
      vertex -2.81072 14.7343 0
      vertex -4.63525 14.2658 8
      vertex -2.81072 14.7343 8
    endloop
  endfacet
  facet normal -0.368125 0.929776 0
    outer loop
      vertex -6.38669 13.5724 0
      vertex -6.38669 13.5724 8
      vertex -4.63525 14.2658 0
    endloop
  endfacet
  facet normal -0.368125 0.929776 0
    outer loop
      vertex -4.63525 14.2658 0
      vertex -6.38669 13.5724 8
      vertex -4.63525 14.2658 8
    endloop
  endfacet
  facet normal -0.481754 0.876307 0
    outer loop
      vertex -8.0374 12.6649 0
      vertex -8.0374 12.6649 8
      vertex -6.38669 13.5724 0
    endloop
  endfacet
  facet normal -0.481754 0.876307 0
    outer loop
      vertex -6.38669 13.5724 0
      vertex -8.0374 12.6649 8
      vertex -6.38669 13.5724 8
    endloop
  endfacet
  facet normal -0.587785 0.809017 0
    outer loop
      vertex -9.56136 11.5577 0
      vertex -9.56136 11.5577 8
      vertex -8.0374 12.6649 0
    endloop
  endfacet
  facet normal -0.587785 0.809017 0
    outer loop
      vertex -8.0374 12.6649 0
      vertex -9.56136 11.5577 8
      vertex -8.0374 12.6649 8
    endloop
  endfacet
  facet normal -0.684547 0.728969 0
    outer loop
      vertex -10.9345 10.2682 0
      vertex -10.9345 10.2682 8
      vertex -9.56136 11.5577 0
    endloop
  endfacet
  facet normal -0.684547 0.728969 0
    outer loop
      vertex -9.56136 11.5577 0
      vertex -10.9345 10.2682 8
      vertex -9.56136 11.5577 8
    endloop
  endfacet
  facet normal -0.770513 0.637424 0
    outer loop
      vertex -12.1353 8.81678 0
      vertex -12.1353 8.81678 8
      vertex -10.9345 10.2682 0
    endloop
  endfacet
  facet normal -0.770513 0.637424 0
    outer loop
      vertex -10.9345 10.2682 0
      vertex -12.1353 8.81678 8
      vertex -10.9345 10.2682 8
    endloop
  endfacet
  facet normal -0.844328 0.535827 0
    outer loop
      vertex -13.1446 7.2263 0
      vertex -13.1446 7.2263 8
      vertex -12.1353 8.81678 0
    endloop
  endfacet
  facet normal -0.844328 0.535827 0
    outer loop
      vertex -12.1353 8.81678 0
      vertex -13.1446 7.2263 8
      vertex -12.1353 8.81678 8
    endloop
  endfacet
  facet normal -0.904827 0.425779 0
    outer loop
      vertex -13.9466 5.52187 0
      vertex -13.9466 5.52187 8
      vertex -13.1446 7.2263 0
    endloop
  endfacet
  facet normal -0.904827 0.425779 0
    outer loop
      vertex -13.1446 7.2263 0
      vertex -13.9466 5.52187 8
      vertex -13.1446 7.2263 8
    endloop
  endfacet
  facet normal -0.951057 0.309017 0
    outer loop
      vertex -14.5287 3.73035 0
      vertex -14.5287 3.73035 8
      vertex -13.9466 5.52187 0
    endloop
  endfacet
  facet normal -0.951057 0.309017 0
    outer loop
      vertex -13.9466 5.52187 0
      vertex -14.5287 3.73035 8
      vertex -13.9466 5.52187 8
    endloop
  endfacet
  facet normal -0.982287 0.187382 0
    outer loop
      vertex -14.8817 1.88 0
      vertex -14.8817 1.88 8
      vertex -14.5287 3.73035 0
    endloop
  endfacet
  facet normal -0.982287 0.187382 0
    outer loop
      vertex -14.5287 3.73035 0
      vertex -14.8817 1.88 8
      vertex -14.5287 3.73035 8
    endloop
  endfacet
  facet normal 0 0 1
    outer loop
      vertex -14.8817 1.88 8
      vertex -15 0 8
      vertex -14.8817 -1.88 8
    endloop
  endfacet
  facet normal 0 0 1
    outer loop
      vertex -13.9466 -5.52187 8
      vertex -14.8817 1.88 8
      vertex -14.5287 -3.73035 8
    endloop
  endfacet
  facet normal 0 0 1
    outer loop
      vertex -14.5287 -3.73035 8
      vertex -14.8817 1.88 8
      vertex -14.8817 -1.88 8
    endloop
  endfacet
  facet normal 0 0 1
    outer loop
      vertex -13.1446 -7.2263 8
      vertex -14.8817 1.88 8
      vertex -13.9466 -5.52187 8
    endloop
  endfacet
  facet normal 0 0 1
    outer loop
      vertex -12.1353 -8.81678 8
      vertex -14.8817 1.88 8
      vertex -13.1446 -7.2263 8
    endloop
  endfacet
  facet normal 0 0 1
    outer loop
      vertex -10.9345 -10.2682 8
      vertex -14.8817 1.88 8
      vertex -12.1353 -8.81678 8
    endloop
  endfacet
  facet normal 0 0 1
    outer loop
      vertex -9.56136 -11.5577 8
      vertex -14.8817 1.88 8
      vertex -10.9345 -10.2682 8
    endloop
  endfacet
  facet normal -0 -0 1
    outer loop
      vertex -12.0871 -4.78562 8
      vertex -14.8817 1.88 8
      vertex -9.56136 -11.5577 8
    endloop
  endfacet
  facet normal 0 0 1
    outer loop
      vertex 4.01722 12.3637 8
      vertex 5.53513 11.7628 8
      vertex 6.38669 13.5724 8
    endloop
  endfacet
  facet normal 0 0 1
    outer loop
      vertex -4.01722 12.3637 8
      vertex -2.43596 12.7697 8
      vertex -0.941858 14.9704 8
    endloop
  endfacet
  facet normal 0 0 1
    outer loop
      vertex -6.96575 10.9763 8
      vertex -5.53513 11.7628 8
      vertex -2.81072 14.7343 8
    endloop
  endfacet
  facet normal 0 -0 1
    outer loop
      vertex -8.0374 12.6649 8
      vertex -14.8817 1.88 8
      vertex -6.38669 13.5724 8
    endloop
  endfacet
  facet normal 0 -0 1
    outer loop
      vertex -9.56136 11.5577 8
      vertex -14.8817 1.88 8
      vertex -8.0374 12.6649 8
    endloop
  endfacet
  facet normal 0 -0 1
    outer loop
      vertex -10.9345 10.2682 8
      vertex -14.8817 1.88 8
      vertex -9.56136 11.5577 8
    endloop
  endfacet
  facet normal 0 -0 1
    outer loop
      vertex -12.1353 8.81678 8
      vertex -14.8817 1.88 8
      vertex -10.9345 10.2682 8
    endloop
  endfacet
  facet normal 0 -0 1
    outer loop
      vertex -13.1446 7.2263 8
      vertex -14.8817 1.88 8
      vertex -12.1353 8.81678 8
    endloop
  endfacet
  facet normal 0 -0 1
    outer loop
      vertex -13.9466 5.52187 8
      vertex -14.8817 1.88 8
      vertex -13.1446 7.2263 8
    endloop
  endfacet
  facet normal 0 -0 1
    outer loop
      vertex -14.5287 3.73035 8
      vertex -14.8817 1.88 8
      vertex -13.9466 5.52187 8
    endloop
  endfacet
  facet normal -0 -0 1
    outer loop
      vertex -9.47659 -8.89911 8
      vertex -10.5172 -7.64121 8
      vertex -8.0374 -12.6649 8
    endloop
  endfacet
  facet normal 0 -0 1
    outer loop
      vertex 8.28651 -10.0167 8
      vertex 6.96575 -10.9763 8
      vertex 9.56136 -11.5577 8
    endloop
  endfacet
  facet normal -0 -0 1
    outer loop
      vertex -2.43596 -12.7697 8
      vertex -4.01722 -12.3637 8
      vertex -0.941858 -14.9704 8
    endloop
  endfacet
  facet normal 0 -0 1
    outer loop
      vertex 12.0871 -4.78562 8
      vertex 11.392 -6.2628 8
      vertex 13.9466 -5.52187 8
    endloop
  endfacet
  facet normal 0 0 1
    outer loop
      vertex 5.53513 11.7628 8
      vertex 6.96575 10.9763 8
      vertex 8.0374 12.6649 8
    endloop
  endfacet
  facet normal 0 0 1
    outer loop
      vertex -2.43596 12.7697 8
      vertex -0.816277 12.9743 8
      vertex 0.941858 14.9704 8
    endloop
  endfacet
  facet normal 0 0 1
    outer loop
      vertex -10.5172 7.64121 8
      vertex -14.8817 1.88 8
      vertex -11.392 6.2628 8
    endloop
  endfacet
  facet normal 0 0 1
    outer loop
      vertex -8.28651 10.0167 8
      vertex -6.96575 10.9763 8
      vertex -4.63525 14.2658 8
    endloop
  endfacet
  facet normal 0 0 1
    outer loop
      vertex -6.38669 13.5724 8
      vertex -14.8817 1.88 8
      vertex -10.5172 7.64121 8
    endloop
  endfacet
  facet normal 0 -0 1
    outer loop
      vertex -6.38669 13.5724 8
      vertex -9.47659 8.89911 8
      vertex -4.63525 14.2658 8
    endloop
  endfacet
  facet normal 0 0 1
    outer loop
      vertex -9.47659 8.89911 8
      vertex -8.28651 10.0167 8
      vertex -4.63525 14.2658 8
    endloop
  endfacet
  facet normal 0 -0 1
    outer loop
      vertex -4.63525 14.2658 8
      vertex -6.96575 10.9763 8
      vertex -2.81072 14.7343 8
    endloop
  endfacet
  facet normal 0 0 1
    outer loop
      vertex -10.5172 7.64121 8
      vertex -9.47659 8.89911 8
      vertex -6.38669 13.5724 8
    endloop
  endfacet
  facet normal 0 -0 1
    outer loop
      vertex -2.81072 14.7343 8
      vertex -5.53513 11.7628 8
      vertex -0.941858 14.9704 8
    endloop
  endfacet
  facet normal 0 0 1
    outer loop
      vertex -5.53513 11.7628 8
      vertex -4.01722 12.3637 8
      vertex -0.941858 14.9704 8
    endloop
  endfacet
  facet normal 0 -0 1
    outer loop
      vertex -0.941858 14.9704 8
      vertex -2.43596 12.7697 8
      vertex 0.941858 14.9704 8
    endloop
  endfacet
  facet normal 0 0 1
    outer loop
      vertex 0.816277 12.9743 8
      vertex 2.43596 12.7697 8
      vertex 4.63525 14.2658 8
    endloop
  endfacet
  facet normal 0 -0 1
    outer loop
      vertex 0.941858 14.9704 8
      vertex -0.816277 12.9743 8
      vertex 2.81072 14.7343 8
    endloop
  endfacet
  facet normal -0 0 1
    outer loop
      vertex -12.0871 4.78562 8
      vertex -11.392 6.2628 8
      vertex -14.8817 1.88 8
    endloop
  endfacet
  facet normal 0 -0 1
    outer loop
      vertex 2.81072 14.7343 8
      vertex 0.816277 12.9743 8
      vertex 4.63525 14.2658 8
    endloop
  endfacet
  facet normal 0 -0 1
    outer loop
      vertex 4.63525 14.2658 8
      vertex 2.43596 12.7697 8
      vertex 6.38669 13.5724 8
    endloop
  endfacet
  facet normal 0 0 1
    outer loop
      vertex 2.43596 12.7697 8
      vertex 4.01722 12.3637 8
      vertex 6.38669 13.5724 8
    endloop
  endfacet
  facet normal 0 -0 1
    outer loop
      vertex 6.38669 13.5724 8
      vertex 5.53513 11.7628 8
      vertex 8.0374 12.6649 8
    endloop
  endfacet
  facet normal 0 0 1
    outer loop
      vertex -0.816277 12.9743 8
      vertex 0.816277 12.9743 8
      vertex 2.81072 14.7343 8
    endloop
  endfacet
  facet normal 0 -0 1
    outer loop
      vertex 8.0374 12.6649 8
      vertex 6.96575 10.9763 8
      vertex 9.56136 11.5577 8
    endloop
  endfacet
  facet normal 0 -0 1
    outer loop
      vertex 9.56136 11.5577 8
      vertex 8.28651 10.0167 8
      vertex 10.9345 10.2682 8
    endloop
  endfacet
  facet normal 0 -0 1
    outer loop
      vertex 2.43596 -12.7697 8
      vertex 0.816277 -12.9743 8
      vertex 2.81072 -14.7343 8
    endloop
  endfacet
  facet normal 0 -0 1
    outer loop
      vertex 10.9345 10.2682 8
      vertex 9.47659 8.89911 8
      vertex 12.1353 8.81678 8
    endloop
  endfacet
  facet normal -0 0 1
    outer loop
      vertex -12.5916 3.23297 8
      vertex -12.0871 4.78562 8
      vertex -14.8817 1.88 8
    endloop
  endfacet
  facet normal 0 -0 1
    outer loop
      vertex 12.1353 8.81678 8
      vertex 10.5172 7.64121 8
      vertex 13.1446 7.2263 8
    endloop
  endfacet
  facet normal 0 -0 1
    outer loop
      vertex 13.1446 7.2263 8
      vertex 11.392 6.2628 8
      vertex 13.9466 5.52187 8
    endloop
  endfacet
  facet normal 0 -0 1
    outer loop
      vertex 13.9466 5.52187 8
      vertex 12.0871 4.78562 8
      vertex 14.5287 3.73035 8
    endloop
  endfacet
  facet normal 0 -0 1
    outer loop
      vertex 14.5287 3.73035 8
      vertex 12.5916 3.23297 8
      vertex 14.8817 1.88 8
    endloop
  endfacet
  facet normal 0 -0 1
    outer loop
      vertex 14.8817 1.88 8
      vertex 12.8975 1.62933 8
      vertex 15 0 8
    endloop
  endfacet
  facet normal 0 0 1
    outer loop
      vertex 15 0 8
      vertex 13 0 8
      vertex 14.8817 -1.88 8
    endloop
  endfacet
  facet normal 0 -0 1
    outer loop
      vertex 13 0 8
      vertex 12.8975 -1.62933 8
      vertex 14.8817 -1.88 8
    endloop
  endfacet
  facet normal 0 0 1
    outer loop
      vertex 14.8817 -1.88 8
      vertex 12.5916 -3.23297 8
      vertex 14.5287 -3.73035 8
    endloop
  endfacet
  facet normal 0 0 1
    outer loop
      vertex 14.5287 -3.73035 8
      vertex 12.0871 -4.78562 8
      vertex 13.9466 -5.52187 8
    endloop
  endfacet
  facet normal 0 0 1
    outer loop
      vertex 6.96575 10.9763 8
      vertex 8.28651 10.0167 8
      vertex 9.56136 11.5577 8
    endloop
  endfacet
  facet normal 0 0 1
    outer loop
      vertex 13.9466 -5.52187 8
      vertex 11.392 -6.2628 8
      vertex 13.1446 -7.2263 8
    endloop
  endfacet
  facet normal 0 0 1
    outer loop
      vertex 8.28651 10.0167 8
      vertex 9.47659 8.89911 8
      vertex 10.9345 10.2682 8
    endloop
  endfacet
  facet normal 0 0 1
    outer loop
      vertex 13.1446 -7.2263 8
      vertex 10.5172 -7.64121 8
      vertex 12.1353 -8.81678 8
    endloop
  endfacet
  facet normal 0 0 1
    outer loop
      vertex 9.47659 8.89911 8
      vertex 10.5172 7.64121 8
      vertex 12.1353 8.81678 8
    endloop
  endfacet
  facet normal 0 0 1
    outer loop
      vertex 12.1353 -8.81678 8
      vertex 9.47659 -8.89911 8
      vertex 10.9345 -10.2682 8
    endloop
  endfacet
  facet normal 0 0 1
    outer loop
      vertex 10.5172 7.64121 8
      vertex 11.392 6.2628 8
      vertex 13.1446 7.2263 8
    endloop
  endfacet
  facet normal -0 0 1
    outer loop
      vertex 10.9345 -10.2682 8
      vertex 8.28651 -10.0167 8
      vertex 9.56136 -11.5577 8
    endloop
  endfacet
  facet normal 0 0 1
    outer loop
      vertex 11.392 6.2628 8
      vertex 12.0871 4.78562 8
      vertex 13.9466 5.52187 8
    endloop
  endfacet
  facet normal -0 0 1
    outer loop
      vertex 9.56136 -11.5577 8
      vertex 6.96575 -10.9763 8
      vertex 8.0374 -12.6649 8
    endloop
  endfacet
  facet normal 0 0 1
    outer loop
      vertex 12.0871 4.78562 8
      vertex 12.5916 3.23297 8
      vertex 14.5287 3.73035 8
    endloop
  endfacet
  facet normal -0 0 1
    outer loop
      vertex 8.0374 -12.6649 8
      vertex 5.53513 -11.7628 8
      vertex 6.38669 -13.5724 8
    endloop
  endfacet
  facet normal 0 0 1
    outer loop
      vertex 12.5916 3.23297 8
      vertex 12.8975 1.62933 8
      vertex 14.8817 1.88 8
    endloop
  endfacet
  facet normal -0 0 1
    outer loop
      vertex 6.38669 -13.5724 8
      vertex 4.01722 -12.3637 8
      vertex 4.63525 -14.2658 8
    endloop
  endfacet
  facet normal 0 0 1
    outer loop
      vertex 12.8975 1.62933 8
      vertex 13 0 8
      vertex 15 0 8
    endloop
  endfacet
  facet normal -0 0 1
    outer loop
      vertex 4.63525 -14.2658 8
      vertex 2.43596 -12.7697 8
      vertex 2.81072 -14.7343 8
    endloop
  endfacet
  facet normal 0 -0 1
    outer loop
      vertex 12.8975 -1.62933 8
      vertex 12.5916 -3.23297 8
      vertex 14.8817 -1.88 8
    endloop
  endfacet
  facet normal -0 0 1
    outer loop
      vertex 2.81072 -14.7343 8
      vertex 0.816277 -12.9743 8
      vertex 0.941858 -14.9704 8
    endloop
  endfacet
  facet normal 0 -0 1
    outer loop
      vertex 0.816277 -12.9743 8
      vertex -0.816277 -12.9743 8
      vertex 0.941858 -14.9704 8
    endloop
  endfacet
  facet normal -0 0 1
    outer loop
      vertex 0.941858 -14.9704 8
      vertex -2.43596 -12.7697 8
      vertex -0.941858 -14.9704 8
    endloop
  endfacet
  facet normal 0 -0 1
    outer loop
      vertex 11.392 -6.2628 8
      vertex 10.5172 -7.64121 8
      vertex 13.1446 -7.2263 8
    endloop
  endfacet
  facet normal 0 0 1
    outer loop
      vertex -0.941858 -14.9704 8
      vertex -4.01722 -12.3637 8
      vertex -2.81072 -14.7343 8
    endloop
  endfacet
  facet normal 0 -0 1
    outer loop
      vertex 10.5172 -7.64121 8
      vertex 9.47659 -8.89911 8
      vertex 12.1353 -8.81678 8
    endloop
  endfacet
  facet normal 0 0 1
    outer loop
      vertex -2.81072 -14.7343 8
      vertex -5.53513 -11.7628 8
      vertex -4.63525 -14.2658 8
    endloop
  endfacet
  facet normal 0 -0 1
    outer loop
      vertex 9.47659 -8.89911 8
      vertex 8.28651 -10.0167 8
      vertex 10.9345 -10.2682 8
    endloop
  endfacet
  facet normal 0 0 1
    outer loop
      vertex -4.63525 -14.2658 8
      vertex -6.96575 -10.9763 8
      vertex -6.38669 -13.5724 8
    endloop
  endfacet
  facet normal -0 -0 1
    outer loop
      vertex -6.96575 -10.9763 8
      vertex -8.28651 -10.0167 8
      vertex -6.38669 -13.5724 8
    endloop
  endfacet
  facet normal 0 0 1
    outer loop
      vertex -6.38669 -13.5724 8
      vertex -9.47659 -8.89911 8
      vertex -8.0374 -12.6649 8
    endloop
  endfacet
  facet normal -0 -0 1
    outer loop
      vertex -4.01722 -12.3637 8
      vertex -5.53513 -11.7628 8
      vertex -2.81072 -14.7343 8
    endloop
  endfacet
  facet normal 0 0 1
    outer loop
      vertex -8.0374 -12.6649 8
      vertex -10.5172 -7.64121 8
      vertex -9.56136 -11.5577 8
    endloop
  endfacet
  facet normal -0 -0 1
    outer loop
      vertex -10.5172 -7.64121 8
      vertex -11.392 -6.2628 8
      vertex -9.56136 -11.5577 8
    endloop
  endfacet
  facet normal -0 -0 1
    outer loop
      vertex -11.392 -6.2628 8
      vertex -12.0871 -4.78562 8
      vertex -9.56136 -11.5577 8
    endloop
  endfacet
  facet normal 0 0 1
    outer loop
      vertex -12.0871 -4.78562 8
      vertex -12.5916 -3.23297 8
      vertex -14.8817 1.88 8
    endloop
  endfacet
  facet normal 0 0 1
    outer loop
      vertex -12.5916 -3.23297 8
      vertex -12.8975 -1.62933 8
      vertex -14.8817 1.88 8
    endloop
  endfacet
  facet normal -0 -0 1
    outer loop
      vertex -8.28651 -10.0167 8
      vertex -9.47659 -8.89911 8
      vertex -6.38669 -13.5724 8
    endloop
  endfacet
  facet normal 0 0 1
    outer loop
      vertex -12.8975 -1.62933 8
      vertex -13 0 8
      vertex -14.8817 1.88 8
    endloop
  endfacet
  facet normal 0 -0 1
    outer loop
      vertex 6.96575 -10.9763 8
      vertex 5.53513 -11.7628 8
      vertex 8.0374 -12.6649 8
    endloop
  endfacet
  facet normal 0 -0 1
    outer loop
      vertex 5.53513 -11.7628 8
      vertex 4.01722 -12.3637 8
      vertex 6.38669 -13.5724 8
    endloop
  endfacet
  facet normal 0 -0 1
    outer loop
      vertex 4.01722 -12.3637 8
      vertex 2.43596 -12.7697 8
      vertex 4.63525 -14.2658 8
    endloop
  endfacet
  facet normal -0 -0 1
    outer loop
      vertex -5.53513 -11.7628 8
      vertex -6.96575 -10.9763 8
      vertex -4.63525 -14.2658 8
    endloop
  endfacet
  facet normal -0 -0 1
    outer loop
      vertex -0.816277 -12.9743 8
      vertex -2.43596 -12.7697 8
      vertex 0.941858 -14.9704 8
    endloop
  endfacet
  facet normal 0 0 1
    outer loop
      vertex -13 0 8
      vertex -12.8975 1.62933 8
      vertex -14.8817 1.88 8
    endloop
  endfacet
  facet normal 0 -0 1
    outer loop
      vertex 12.5916 -3.23297 8
      vertex 12.0871 -4.78562 8
      vertex 14.5287 -3.73035 8
    endloop
  endfacet
  facet normal 0 0 1
    outer loop
      vertex -12.8975 1.62933 8
      vertex -12.5916 3.23297 8
      vertex -14.8817 1.88 8
    endloop
  endfacet
  facet normal 0.998027 0.0627906 0
    outer loop
      vertex -13 0 8
      vertex -12.8975 -1.62933 8
      vertex -12.8975 -1.62933 4
    endloop
  endfacet
  facet normal 0.998027 0.0627906 0
    outer loop
      vertex -13 0 4
      vertex -13 0 8
      vertex -12.8975 -1.62933 4
    endloop
  endfacet
  facet normal 0.982287 0.187381 0
    outer loop
      vertex -12.8975 -1.62933 8
      vertex -12.5916 -3.23297 8
      vertex -12.5916 -3.23297 4
    endloop
  endfacet
  facet normal 0.982287 0.187381 0
    outer loop
      vertex -12.8975 -1.62933 4
      vertex -12.8975 -1.62933 8
      vertex -12.5916 -3.23297 4
    endloop
  endfacet
  facet normal 0.951056 0.309017 0
    outer loop
      vertex -12.5916 -3.23297 8
      vertex -12.0871 -4.78562 8
      vertex -12.0871 -4.78562 4
    endloop
  endfacet
  facet normal 0.951056 0.309017 0
    outer loop
      vertex -12.5916 -3.23297 4
      vertex -12.5916 -3.23297 8
      vertex -12.0871 -4.78562 4
    endloop
  endfacet
  facet normal 0.904827 0.425779 0
    outer loop
      vertex -12.0871 -4.78562 8
      vertex -11.392 -6.2628 8
      vertex -11.392 -6.2628 4
    endloop
  endfacet
  facet normal 0.904827 0.425779 0
    outer loop
      vertex -12.0871 -4.78562 4
      vertex -12.0871 -4.78562 8
      vertex -11.392 -6.2628 4
    endloop
  endfacet
  facet normal 0.844328 0.535827 0
    outer loop
      vertex -11.392 -6.2628 8
      vertex -10.5172 -7.64121 8
      vertex -10.5172 -7.64121 4
    endloop
  endfacet
  facet normal 0.844328 0.535827 0
    outer loop
      vertex -11.392 -6.2628 4
      vertex -11.392 -6.2628 8
      vertex -10.5172 -7.64121 4
    endloop
  endfacet
  facet normal 0.770513 0.637424 0
    outer loop
      vertex -10.5172 -7.64121 8
      vertex -9.47659 -8.89911 8
      vertex -9.47659 -8.89911 4
    endloop
  endfacet
  facet normal 0.770513 0.637424 0
    outer loop
      vertex -10.5172 -7.64121 4
      vertex -10.5172 -7.64121 8
      vertex -9.47659 -8.89911 4
    endloop
  endfacet
  facet normal 0.684547 0.728968 -0
    outer loop
      vertex -8.28651 -10.0167 8
      vertex -8.28651 -10.0167 4
      vertex -9.47659 -8.89911 8
    endloop
  endfacet
  facet normal 0.684547 0.728968 -0
    outer loop
      vertex -9.47659 -8.89911 8
      vertex -8.28651 -10.0167 4
      vertex -9.47659 -8.89911 4
    endloop
  endfacet
  facet normal 0.587785 0.809017 -0
    outer loop
      vertex -6.96575 -10.9763 8
      vertex -6.96575 -10.9763 4
      vertex -8.28651 -10.0167 8
    endloop
  endfacet
  facet normal 0.587785 0.809017 -0
    outer loop
      vertex -8.28651 -10.0167 8
      vertex -6.96575 -10.9763 4
      vertex -8.28651 -10.0167 4
    endloop
  endfacet
  facet normal 0.481754 0.876307 -0
    outer loop
      vertex -5.53513 -11.7628 8
      vertex -5.53513 -11.7628 4
      vertex -6.96575 -10.9763 8
    endloop
  endfacet
  facet normal 0.481754 0.876307 -0
    outer loop
      vertex -6.96575 -10.9763 8
      vertex -5.53513 -11.7628 4
      vertex -6.96575 -10.9763 4
    endloop
  endfacet
  facet normal 0.368125 0.929777 -0
    outer loop
      vertex -4.01722 -12.3637 8
      vertex -4.01722 -12.3637 4
      vertex -5.53513 -11.7628 8
    endloop
  endfacet
  facet normal 0.368125 0.929777 -0
    outer loop
      vertex -5.53513 -11.7628 8
      vertex -4.01722 -12.3637 4
      vertex -5.53513 -11.7628 4
    endloop
  endfacet
  facet normal 0.24869 0.968583 -0
    outer loop
      vertex -2.43596 -12.7697 8
      vertex -2.43596 -12.7697 4
      vertex -4.01722 -12.3637 8
    endloop
  endfacet
  facet normal 0.24869 0.968583 -0
    outer loop
      vertex -4.01722 -12.3637 8
      vertex -2.43596 -12.7697 4
      vertex -4.01722 -12.3637 4
    endloop
  endfacet
  facet normal 0.125333 0.992115 -0
    outer loop
      vertex -0.816277 -12.9743 8
      vertex -0.816277 -12.9743 4
      vertex -2.43596 -12.7697 8
    endloop
  endfacet
  facet normal 0.125333 0.992115 -0
    outer loop
      vertex -2.43596 -12.7697 8
      vertex -0.816277 -12.9743 4
      vertex -2.43596 -12.7697 4
    endloop
  endfacet
  facet normal 0 1 0
    outer loop
      vertex 0.816277 -12.9743 8
      vertex 0.816277 -12.9743 4
      vertex -0.816277 -12.9743 8
    endloop
  endfacet
  facet normal 0 1 -0
    outer loop
      vertex -0.816277 -12.9743 8
      vertex 0.816277 -12.9743 4
      vertex -0.816277 -12.9743 4
    endloop
  endfacet
  facet normal -0.125333 0.992115 0
    outer loop
      vertex 2.43596 -12.7697 8
      vertex 2.43596 -12.7697 4
      vertex 0.816277 -12.9743 8
    endloop
  endfacet
  facet normal -0.125333 0.992115 0
    outer loop
      vertex 0.816277 -12.9743 8
      vertex 2.43596 -12.7697 4
      vertex 0.816277 -12.9743 4
    endloop
  endfacet
  facet normal -0.24869 0.968583 0
    outer loop
      vertex 4.01722 -12.3637 8
      vertex 4.01722 -12.3637 4
      vertex 2.43596 -12.7697 8
    endloop
  endfacet
  facet normal -0.24869 0.968583 0
    outer loop
      vertex 2.43596 -12.7697 8
      vertex 4.01722 -12.3637 4
      vertex 2.43596 -12.7697 4
    endloop
  endfacet
  facet normal -0.368125 0.929777 0
    outer loop
      vertex 5.53513 -11.7628 8
      vertex 5.53513 -11.7628 4
      vertex 4.01722 -12.3637 8
    endloop
  endfacet
  facet normal -0.368125 0.929777 0
    outer loop
      vertex 4.01722 -12.3637 8
      vertex 5.53513 -11.7628 4
      vertex 4.01722 -12.3637 4
    endloop
  endfacet
  facet normal -0.481754 0.876307 0
    outer loop
      vertex 6.96575 -10.9763 8
      vertex 6.96575 -10.9763 4
      vertex 5.53513 -11.7628 8
    endloop
  endfacet
  facet normal -0.481754 0.876307 0
    outer loop
      vertex 5.53513 -11.7628 8
      vertex 6.96575 -10.9763 4
      vertex 5.53513 -11.7628 4
    endloop
  endfacet
  facet normal -0.587785 0.809017 0
    outer loop
      vertex 8.28651 -10.0167 8
      vertex 8.28651 -10.0167 4
      vertex 6.96575 -10.9763 8
    endloop
  endfacet
  facet normal -0.587785 0.809017 0
    outer loop
      vertex 6.96575 -10.9763 8
      vertex 8.28651 -10.0167 4
      vertex 6.96575 -10.9763 4
    endloop
  endfacet
  facet normal -0.684547 0.728968 0
    outer loop
      vertex 9.47659 -8.89911 8
      vertex 9.47659 -8.89911 4
      vertex 8.28651 -10.0167 8
    endloop
  endfacet
  facet normal -0.684547 0.728968 0
    outer loop
      vertex 8.28651 -10.0167 8
      vertex 9.47659 -8.89911 4
      vertex 8.28651 -10.0167 4
    endloop
  endfacet
  facet normal -0.770513 0.637424 0
    outer loop
      vertex 10.5172 -7.64121 8
      vertex 10.5172 -7.64121 4
      vertex 9.47659 -8.89911 8
    endloop
  endfacet
  facet normal -0.770513 0.637424 0
    outer loop
      vertex 9.47659 -8.89911 8
      vertex 10.5172 -7.64121 4
      vertex 9.47659 -8.89911 4
    endloop
  endfacet
  facet normal -0.844328 0.535827 0
    outer loop
      vertex 11.392 -6.2628 8
      vertex 11.392 -6.2628 4
      vertex 10.5172 -7.64121 8
    endloop
  endfacet
  facet normal -0.844328 0.535827 0
    outer loop
      vertex 10.5172 -7.64121 8
      vertex 11.392 -6.2628 4
      vertex 10.5172 -7.64121 4
    endloop
  endfacet
  facet normal -0.904827 0.425779 0
    outer loop
      vertex 12.0871 -4.78562 8
      vertex 12.0871 -4.78562 4
      vertex 11.392 -6.2628 8
    endloop
  endfacet
  facet normal -0.904827 0.425779 0
    outer loop
      vertex 11.392 -6.2628 8
      vertex 12.0871 -4.78562 4
      vertex 11.392 -6.2628 4
    endloop
  endfacet
  facet normal -0.951056 0.309017 0
    outer loop
      vertex 12.5916 -3.23297 8
      vertex 12.5916 -3.23297 4
      vertex 12.0871 -4.78562 8
    endloop
  endfacet
  facet normal -0.951056 0.309017 0
    outer loop
      vertex 12.0871 -4.78562 8
      vertex 12.5916 -3.23297 4
      vertex 12.0871 -4.78562 4
    endloop
  endfacet
  facet normal -0.982287 0.187381 0
    outer loop
      vertex 12.8975 -1.62933 8
      vertex 12.8975 -1.62933 4
      vertex 12.5916 -3.23297 8
    endloop
  endfacet
  facet normal -0.982287 0.187381 0
    outer loop
      vertex 12.5916 -3.23297 8
      vertex 12.8975 -1.62933 4
      vertex 12.5916 -3.23297 4
    endloop
  endfacet
  facet normal -0.998027 0.0627906 0
    outer loop
      vertex 13 0 8
      vertex 13 0 4
      vertex 12.8975 -1.62933 8
    endloop
  endfacet
  facet normal -0.998027 0.0627906 0
    outer loop
      vertex 12.8975 -1.62933 8
      vertex 13 0 4
      vertex 12.8975 -1.62933 4
    endloop
  endfacet
  facet normal -0.998027 -0.0627906 0
    outer loop
      vertex 13 0 8
      vertex 12.8975 1.62933 8
      vertex 13 0 4
    endloop
  endfacet
  facet normal -0.998027 -0.0627906 0
    outer loop
      vertex 13 0 4
      vertex 12.8975 1.62933 8
      vertex 12.8975 1.62933 4
    endloop
  endfacet
  facet normal -0.982287 -0.187381 0
    outer loop
      vertex 12.8975 1.62933 8
      vertex 12.5916 3.23297 8
      vertex 12.8975 1.62933 4
    endloop
  endfacet
  facet normal -0.982287 -0.187381 0
    outer loop
      vertex 12.8975 1.62933 4
      vertex 12.5916 3.23297 8
      vertex 12.5916 3.23297 4
    endloop
  endfacet
  facet normal -0.951056 -0.309017 0
    outer loop
      vertex 12.5916 3.23297 8
      vertex 12.0871 4.78562 8
      vertex 12.5916 3.23297 4
    endloop
  endfacet
  facet normal -0.951056 -0.309017 0
    outer loop
      vertex 12.5916 3.23297 4
      vertex 12.0871 4.78562 8
      vertex 12.0871 4.78562 4
    endloop
  endfacet
  facet normal -0.904827 -0.425779 0
    outer loop
      vertex 12.0871 4.78562 8
      vertex 11.392 6.2628 8
      vertex 12.0871 4.78562 4
    endloop
  endfacet
  facet normal -0.904827 -0.425779 0
    outer loop
      vertex 12.0871 4.78562 4
      vertex 11.392 6.2628 8
      vertex 11.392 6.2628 4
    endloop
  endfacet
  facet normal -0.844328 -0.535827 0
    outer loop
      vertex 11.392 6.2628 8
      vertex 10.5172 7.64121 8
      vertex 11.392 6.2628 4
    endloop
  endfacet
  facet normal -0.844328 -0.535827 0
    outer loop
      vertex 11.392 6.2628 4
      vertex 10.5172 7.64121 8
      vertex 10.5172 7.64121 4
    endloop
  endfacet
  facet normal -0.770513 -0.637424 0
    outer loop
      vertex 10.5172 7.64121 8
      vertex 9.47659 8.89911 8
      vertex 10.5172 7.64121 4
    endloop
  endfacet
  facet normal -0.770513 -0.637424 0
    outer loop
      vertex 10.5172 7.64121 4
      vertex 9.47659 8.89911 8
      vertex 9.47659 8.89911 4
    endloop
  endfacet
  facet normal -0.684547 -0.728968 -0
    outer loop
      vertex 9.47659 8.89911 4
      vertex 9.47659 8.89911 8
      vertex 8.28651 10.0167 8
    endloop
  endfacet
  facet normal -0.684547 -0.728968 -0
    outer loop
      vertex 8.28651 10.0167 4
      vertex 9.47659 8.89911 4
      vertex 8.28651 10.0167 8
    endloop
  endfacet
  facet normal -0.587785 -0.809017 -0
    outer loop
      vertex 8.28651 10.0167 4
      vertex 8.28651 10.0167 8
      vertex 6.96575 10.9763 8
    endloop
  endfacet
  facet normal -0.587785 -0.809017 -0
    outer loop
      vertex 6.96575 10.9763 4
      vertex 8.28651 10.0167 4
      vertex 6.96575 10.9763 8
    endloop
  endfacet
  facet normal -0.481754 -0.876307 -0
    outer loop
      vertex 6.96575 10.9763 4
      vertex 6.96575 10.9763 8
      vertex 5.53513 11.7628 8
    endloop
  endfacet
  facet normal -0.481754 -0.876307 -0
    outer loop
      vertex 5.53513 11.7628 4
      vertex 6.96575 10.9763 4
      vertex 5.53513 11.7628 8
    endloop
  endfacet
  facet normal -0.368125 -0.929777 -0
    outer loop
      vertex 5.53513 11.7628 4
      vertex 5.53513 11.7628 8
      vertex 4.01722 12.3637 8
    endloop
  endfacet
  facet normal -0.368125 -0.929777 -0
    outer loop
      vertex 4.01722 12.3637 4
      vertex 5.53513 11.7628 4
      vertex 4.01722 12.3637 8
    endloop
  endfacet
  facet normal -0.24869 -0.968583 -0
    outer loop
      vertex 4.01722 12.3637 4
      vertex 4.01722 12.3637 8
      vertex 2.43596 12.7697 8
    endloop
  endfacet
  facet normal -0.24869 -0.968583 -0
    outer loop
      vertex 2.43596 12.7697 4
      vertex 4.01722 12.3637 4
      vertex 2.43596 12.7697 8
    endloop
  endfacet
  facet normal -0.125333 -0.992115 -0
    outer loop
      vertex 2.43596 12.7697 4
      vertex 2.43596 12.7697 8
      vertex 0.816277 12.9743 8
    endloop
  endfacet
  facet normal -0.125333 -0.992115 -0
    outer loop
      vertex 0.816277 12.9743 4
      vertex 2.43596 12.7697 4
      vertex 0.816277 12.9743 8
    endloop
  endfacet
  facet normal 0 -1 0
    outer loop
      vertex 0.816277 12.9743 4
      vertex 0.816277 12.9743 8
      vertex -0.816277 12.9743 8
    endloop
  endfacet
  facet normal -0 -1 -0
    outer loop
      vertex -0.816277 12.9743 4
      vertex 0.816277 12.9743 4
      vertex -0.816277 12.9743 8
    endloop
  endfacet
  facet normal 0.125333 -0.992115 0
    outer loop
      vertex -0.816277 12.9743 4
      vertex -0.816277 12.9743 8
      vertex -2.43596 12.7697 8
    endloop
  endfacet
  facet normal 0.125333 -0.992115 0
    outer loop
      vertex -2.43596 12.7697 4
      vertex -0.816277 12.9743 4
      vertex -2.43596 12.7697 8
    endloop
  endfacet
  facet normal 0.24869 -0.968583 0
    outer loop
      vertex -2.43596 12.7697 4
      vertex -2.43596 12.7697 8
      vertex -4.01722 12.3637 8
    endloop
  endfacet
  facet normal 0.24869 -0.968583 0
    outer loop
      vertex -4.01722 12.3637 4
      vertex -2.43596 12.7697 4
      vertex -4.01722 12.3637 8
    endloop
  endfacet
  facet normal 0.368125 -0.929777 0
    outer loop
      vertex -4.01722 12.3637 4
      vertex -4.01722 12.3637 8
      vertex -5.53513 11.7628 8
    endloop
  endfacet
  facet normal 0.368125 -0.929777 0
    outer loop
      vertex -5.53513 11.7628 4
      vertex -4.01722 12.3637 4
      vertex -5.53513 11.7628 8
    endloop
  endfacet
  facet normal 0.481754 -0.876307 0
    outer loop
      vertex -5.53513 11.7628 4
      vertex -5.53513 11.7628 8
      vertex -6.96575 10.9763 8
    endloop
  endfacet
  facet normal 0.481754 -0.876307 0
    outer loop
      vertex -6.96575 10.9763 4
      vertex -5.53513 11.7628 4
      vertex -6.96575 10.9763 8
    endloop
  endfacet
  facet normal 0.587785 -0.809017 0
    outer loop
      vertex -6.96575 10.9763 4
      vertex -6.96575 10.9763 8
      vertex -8.28651 10.0167 8
    endloop
  endfacet
  facet normal 0.587785 -0.809017 0
    outer loop
      vertex -8.28651 10.0167 4
      vertex -6.96575 10.9763 4
      vertex -8.28651 10.0167 8
    endloop
  endfacet
  facet normal 0.684547 -0.728968 0
    outer loop
      vertex -8.28651 10.0167 4
      vertex -8.28651 10.0167 8
      vertex -9.47659 8.89911 8
    endloop
  endfacet
  facet normal 0.684547 -0.728968 0
    outer loop
      vertex -9.47659 8.89911 4
      vertex -8.28651 10.0167 4
      vertex -9.47659 8.89911 8
    endloop
  endfacet
  facet normal 0.770513 -0.637424 0
    outer loop
      vertex -9.47659 8.89911 4
      vertex -9.47659 8.89911 8
      vertex -10.5172 7.64121 8
    endloop
  endfacet
  facet normal 0.770513 -0.637424 0
    outer loop
      vertex -10.5172 7.64121 4
      vertex -9.47659 8.89911 4
      vertex -10.5172 7.64121 8
    endloop
  endfacet
  facet normal 0.844328 -0.535827 0
    outer loop
      vertex -10.5172 7.64121 4
      vertex -10.5172 7.64121 8
      vertex -11.392 6.2628 8
    endloop
  endfacet
  facet normal 0.844328 -0.535827 0
    outer loop
      vertex -11.392 6.2628 4
      vertex -10.5172 7.64121 4
      vertex -11.392 6.2628 8
    endloop
  endfacet
  facet normal 0.904827 -0.425779 0
    outer loop
      vertex -11.392 6.2628 4
      vertex -11.392 6.2628 8
      vertex -12.0871 4.78562 8
    endloop
  endfacet
  facet normal 0.904827 -0.425779 0
    outer loop
      vertex -12.0871 4.78562 4
      vertex -11.392 6.2628 4
      vertex -12.0871 4.78562 8
    endloop
  endfacet
  facet normal 0.951056 -0.309017 0
    outer loop
      vertex -12.0871 4.78562 4
      vertex -12.0871 4.78562 8
      vertex -12.5916 3.23297 8
    endloop
  endfacet
  facet normal 0.951056 -0.309017 0
    outer loop
      vertex -12.5916 3.23297 4
      vertex -12.0871 4.78562 4
      vertex -12.5916 3.23297 8
    endloop
  endfacet
  facet normal 0.982287 -0.187381 0
    outer loop
      vertex -12.5916 3.23297 4
      vertex -12.5916 3.23297 8
      vertex -12.8975 1.62933 8
    endloop
  endfacet
  facet normal 0.982287 -0.187381 0
    outer loop
      vertex -12.8975 1.62933 4
      vertex -12.5916 3.23297 4
      vertex -12.8975 1.62933 8
    endloop
  endfacet
  facet normal 0.998027 -0.0627906 0
    outer loop
      vertex -12.8975 1.62933 4
      vertex -12.8975 1.62933 8
      vertex -13 0 8
    endloop
  endfacet
  facet normal 0.998027 -0.0627906 0
    outer loop
      vertex -13 0 4
      vertex -12.8975 1.62933 4
      vertex -13 0 8
    endloop
  endfacet
  facet normal 0 0 1
    outer loop
      vertex -12.8975 -1.62933 4
      vertex -12.5916 -3.23297 4
      vertex -12.0871 -4.78562 4
    endloop
  endfacet
  facet normal 0 0 1
    outer loop
      vertex -10.5172 -7.64121 4
      vertex -12.8975 -1.62933 4
      vertex -11.392 -6.2628 4
    endloop
  endfacet
  facet normal 0 0 1
    outer loop
      vertex -11.392 -6.2628 4
      vertex -12.8975 -1.62933 4
      vertex -12.0871 -4.78562 4
    endloop
  endfacet
  facet normal 0 0 1
    outer loop
      vertex -9.47659 -8.89911 4
      vertex -12.8975 -1.62933 4
      vertex -10.5172 -7.64121 4
    endloop
  endfacet
  facet normal 0 0 1
    outer loop
      vertex -8.28651 -10.0167 4
      vertex -12.8975 -1.62933 4
      vertex -9.47659 -8.89911 4
    endloop
  endfacet
  facet normal 0 0 1
    outer loop
      vertex -6.96575 -10.9763 4
      vertex -12.8975 -1.62933 4
      vertex -8.28651 -10.0167 4
    endloop
  endfacet
  facet normal 0 0 1
    outer loop
      vertex -5.53513 -11.7628 4
      vertex -12.8975 -1.62933 4
      vertex -6.96575 -10.9763 4
    endloop
  endfacet
  facet normal 0 0 1
    outer loop
      vertex -4.01722 -12.3637 4
      vertex -12.8975 -1.62933 4
      vertex -5.53513 -11.7628 4
    endloop
  endfacet
  facet normal 0 0 1
    outer loop
      vertex -2.43596 -12.7697 4
      vertex -12.8975 -1.62933 4
      vertex -4.01722 -12.3637 4
    endloop
  endfacet
  facet normal 0 0 1
    outer loop
      vertex -0.816277 -12.9743 4
      vertex -12.8975 -1.62933 4
      vertex -2.43596 -12.7697 4
    endloop
  endfacet
  facet normal -0 0 1
    outer loop
      vertex 0.816277 -12.9743 4
      vertex -12.8975 -1.62933 4
      vertex -0.816277 -12.9743 4
    endloop
  endfacet
  facet normal -0 0 1
    outer loop
      vertex 2.43596 -12.7697 4
      vertex -12.8975 -1.62933 4
      vertex 0.816277 -12.9743 4
    endloop
  endfacet
  facet normal -0 0 1
    outer loop
      vertex 4.01722 -12.3637 4
      vertex -12.8975 -1.62933 4
      vertex 2.43596 -12.7697 4
    endloop
  endfacet
  facet normal -0 0 1
    outer loop
      vertex 5.53513 -11.7628 4
      vertex -12.8975 -1.62933 4
      vertex 4.01722 -12.3637 4
    endloop
  endfacet
  facet normal -0 0 1
    outer loop
      vertex 6.96575 -10.9763 4
      vertex -12.8975 -1.62933 4
      vertex 5.53513 -11.7628 4
    endloop
  endfacet
  facet normal -0 0 1
    outer loop
      vertex 8.28651 -10.0167 4
      vertex -12.8975 -1.62933 4
      vertex 6.96575 -10.9763 4
    endloop
  endfacet
  facet normal -0 0 1
    outer loop
      vertex 9.47659 -8.89911 4
      vertex -12.8975 -1.62933 4
      vertex 8.28651 -10.0167 4
    endloop
  endfacet
  facet normal -0 0 1
    outer loop
      vertex 10.5172 -7.64121 4
      vertex -12.8975 -1.62933 4
      vertex 9.47659 -8.89911 4
    endloop
  endfacet
  facet normal -0 0 1
    outer loop
      vertex 11.392 -6.2628 4
      vertex -12.8975 -1.62933 4
      vertex 10.5172 -7.64121 4
    endloop
  endfacet
  facet normal -0 0 1
    outer loop
      vertex 12.0871 -4.78562 4
      vertex -12.8975 -1.62933 4
      vertex 11.392 -6.2628 4
    endloop
  endfacet
  facet normal -0 -0 1
    outer loop
      vertex 0 -3 4
      vertex -12.8975 -1.62933 4
      vertex 12.0871 -4.78562 4
    endloop
  endfacet
  facet normal 0 0 1
    outer loop
      vertex -2.42705 -1.76336 4
      vertex -2.85317 -0.927051 4
      vertex -12.8975 -1.62933 4
    endloop
  endfacet
  facet normal 0 -0 1
    outer loop
      vertex 2.85317 -0.927051 4
      vertex 2.42705 -1.76336 4
      vertex 12.8975 -1.62933 4
    endloop
  endfacet
  facet normal 0 0 1
    outer loop
      vertex 2.85317 0.927051 4
      vertex 3 0 4
      vertex 12.8975 1.62933 4
    endloop
  endfacet
  facet normal -0 0 1
    outer loop
      vertex -2.42705 1.76336 4
      vertex -1.76336 2.42705 4
      vertex -12.8975 -1.62933 4
    endloop
  endfacet
  facet normal 0 -0 1
    outer loop
      vertex 9.47659 8.89911 4
      vertex -12.8975 -1.62933 4
      vertex 10.5172 7.64121 4
    endloop
  endfacet
  facet normal 0 -0 1
    outer loop
      vertex 8.28651 10.0167 4
      vertex -12.8975 -1.62933 4
      vertex 9.47659 8.89911 4
    endloop
  endfacet
  facet normal 0 -0 1
    outer loop
      vertex 6.96575 10.9763 4
      vertex -12.8975 -1.62933 4
      vertex 8.28651 10.0167 4
    endloop
  endfacet
  facet normal 0 -0 1
    outer loop
      vertex 5.53513 11.7628 4
      vertex -12.8975 -1.62933 4
      vertex 6.96575 10.9763 4
    endloop
  endfacet
  facet normal 0 -0 1
    outer loop
      vertex 4.01722 12.3637 4
      vertex -12.8975 -1.62933 4
      vertex 5.53513 11.7628 4
    endloop
  endfacet
  facet normal 0 -0 1
    outer loop
      vertex 2.43596 12.7697 4
      vertex -12.8975 -1.62933 4
      vertex 4.01722 12.3637 4
    endloop
  endfacet
  facet normal 0 -0 1
    outer loop
      vertex 0.816277 12.9743 4
      vertex -12.8975 -1.62933 4
      vertex 2.43596 12.7697 4
    endloop
  endfacet
  facet normal 0 -0 1
    outer loop
      vertex -0.816277 12.9743 4
      vertex -12.8975 -1.62933 4
      vertex 0.816277 12.9743 4
    endloop
  endfacet
  facet normal 0 -0 1
    outer loop
      vertex -2.43596 12.7697 4
      vertex -12.8975 -1.62933 4
      vertex -0.816277 12.9743 4
    endloop
  endfacet
  facet normal 0 -0 1
    outer loop
      vertex -4.01722 12.3637 4
      vertex -12.8975 -1.62933 4
      vertex -2.43596 12.7697 4
    endloop
  endfacet
  facet normal 0 -0 1
    outer loop
      vertex -5.53513 11.7628 4
      vertex -12.8975 -1.62933 4
      vertex -4.01722 12.3637 4
    endloop
  endfacet
  facet normal 0 -0 1
    outer loop
      vertex -6.96575 10.9763 4
      vertex -12.8975 -1.62933 4
      vertex -5.53513 11.7628 4
    endloop
  endfacet
  facet normal 0 -0 1
    outer loop
      vertex -8.28651 10.0167 4
      vertex -12.8975 -1.62933 4
      vertex -6.96575 10.9763 4
    endloop
  endfacet
  facet normal 0 -0 1
    outer loop
      vertex -9.47659 8.89911 4
      vertex -12.8975 -1.62933 4
      vertex -8.28651 10.0167 4
    endloop
  endfacet
  facet normal 0 -0 1
    outer loop
      vertex -10.5172 7.64121 4
      vertex -12.8975 -1.62933 4
      vertex -9.47659 8.89911 4
    endloop
  endfacet
  facet normal 0 -0 1
    outer loop
      vertex -11.392 6.2628 4
      vertex -12.8975 -1.62933 4
      vertex -10.5172 7.64121 4
    endloop
  endfacet
  facet normal 0 -0 1
    outer loop
      vertex -12.0871 4.78562 4
      vertex -12.8975 -1.62933 4
      vertex -11.392 6.2628 4
    endloop
  endfacet
  facet normal 0 -0 1
    outer loop
      vertex -12.5916 3.23297 4
      vertex -12.8975 -1.62933 4
      vertex -12.0871 4.78562 4
    endloop
  endfacet
  facet normal 0 -0 1
    outer loop
      vertex -12.8975 1.62933 4
      vertex -12.8975 -1.62933 4
      vertex -12.5916 3.23297 4
    endloop
  endfacet
  facet normal 0 0 1
    outer loop
      vertex -13 0 4
      vertex -12.8975 -1.62933 4
      vertex -12.8975 1.62933 4
    endloop
  endfacet
  facet normal 0 -0 1
    outer loop
      vertex 3 0 4
      vertex 2.85317 -0.927051 4
      vertex 13 0 4
    endloop
  endfacet
  facet normal 0 0 1
    outer loop
      vertex 0 3 4
      vertex 0.927051 2.85317 4
      vertex 11.392 6.2628 4
    endloop
  endfacet
  facet normal 0 0 1
    outer loop
      vertex 1.76336 2.42705 4
      vertex 2.42705 1.76336 4
      vertex 12.0871 4.78562 4
    endloop
  endfacet
  facet normal 0 0 1
    outer loop
      vertex -0.927051 2.85317 4
      vertex 0 3 4
      vertex 10.5172 7.64121 4
    endloop
  endfacet
  facet normal 0 0 1
    outer loop
      vertex 2.42705 1.76336 4
      vertex 2.85317 0.927051 4
      vertex 12.5916 3.23297 4
    endloop
  endfacet
  facet normal 0 0 1
    outer loop
      vertex -0.927051 2.85317 4
      vertex -12.8975 -1.62933 4
      vertex -1.76336 2.42705 4
    endloop
  endfacet
  facet normal 0 0 1
    outer loop
      vertex 10.5172 7.64121 4
      vertex -12.8975 -1.62933 4
      vertex -0.927051 2.85317 4
    endloop
  endfacet
  facet normal 0 -0 1
    outer loop
      vertex 10.5172 7.64121 4
      vertex 0 3 4
      vertex 11.392 6.2628 4
    endloop
  endfacet
  facet normal 0 -0 1
    outer loop
      vertex 11.392 6.2628 4
      vertex 0.927051 2.85317 4
      vertex 12.0871 4.78562 4
    endloop
  endfacet
  facet normal 0 0 1
    outer loop
      vertex 0.927051 2.85317 4
      vertex 1.76336 2.42705 4
      vertex 12.0871 4.78562 4
    endloop
  endfacet
  facet normal 0 -0 1
    outer loop
      vertex 12.0871 4.78562 4
      vertex 2.42705 1.76336 4
      vertex 12.5916 3.23297 4
    endloop
  endfacet
  facet normal 0 -0 1
    outer loop
      vertex 12.5916 3.23297 4
      vertex 2.85317 0.927051 4
      vertex 12.8975 1.62933 4
    endloop
  endfacet
  facet normal 0 -0 1
    outer loop
      vertex 12.8975 1.62933 4
      vertex 3 0 4
      vertex 13 0 4
    endloop
  endfacet
  facet normal -0 0 1
    outer loop
      vertex -3 0 4
      vertex -2.85317 0.927051 4
      vertex -12.8975 -1.62933 4
    endloop
  endfacet
  facet normal 0 0 1
    outer loop
      vertex 13 0 4
      vertex 2.85317 -0.927051 4
      vertex 12.8975 -1.62933 4
    endloop
  endfacet
  facet normal 0 0 1
    outer loop
      vertex 12.8975 -1.62933 4
      vertex 2.42705 -1.76336 4
      vertex 12.5916 -3.23297 4
    endloop
  endfacet
  facet normal 0 -0 1
    outer loop
      vertex 2.42705 -1.76336 4
      vertex 1.76336 -2.42705 4
      vertex 12.5916 -3.23297 4
    endloop
  endfacet
  facet normal -0 0 1
    outer loop
      vertex 12.5916 -3.23297 4
      vertex 0.927051 -2.85317 4
      vertex 12.0871 -4.78562 4
    endloop
  endfacet
  facet normal 0 -0 1
    outer loop
      vertex 0.927051 -2.85317 4
      vertex 0 -3 4
      vertex 12.0871 -4.78562 4
    endloop
  endfacet
  facet normal -0 -0 1
    outer loop
      vertex -0.927051 -2.85317 4
      vertex -12.8975 -1.62933 4
      vertex 0 -3 4
    endloop
  endfacet
  facet normal 0 0 1
    outer loop
      vertex -1.76336 -2.42705 4
      vertex -2.42705 -1.76336 4
      vertex -12.8975 -1.62933 4
    endloop
  endfacet
  facet normal 0 0 1
    outer loop
      vertex -0.927051 -2.85317 4
      vertex -1.76336 -2.42705 4
      vertex -12.8975 -1.62933 4
    endloop
  endfacet
  facet normal 0 -0 1
    outer loop
      vertex 1.76336 -2.42705 4
      vertex 0.927051 -2.85317 4
      vertex 12.5916 -3.23297 4
    endloop
  endfacet
  facet normal -0 0 1
    outer loop
      vertex -2.85317 0.927051 4
      vertex -2.42705 1.76336 4
      vertex -12.8975 -1.62933 4
    endloop
  endfacet
  facet normal -0 0 1
    outer loop
      vertex -2.85317 -0.927051 4
      vertex -3 0 4
      vertex -12.8975 -1.62933 4
    endloop
  endfacet
  facet normal -0.987688 0.156434 0
    outer loop
      vertex -3 0 4
      vertex -3 0 15
      vertex -2.85317 0.927051 4
    endloop
  endfacet
  facet normal -0.987688 0.156434 0
    outer loop
      vertex -2.85317 0.927051 4
      vertex -3 0 15
      vertex -2.85317 0.927051 15
    endloop
  endfacet
  facet normal -0.987688 -0.156434 -0
    outer loop
      vertex -3 0 4
      vertex -2.85317 -0.927051 4
      vertex -3 0 15
    endloop
  endfacet
  facet normal -0.987688 -0.156434 0
    outer loop
      vertex -3 0 15
      vertex -2.85317 -0.927051 4
      vertex -2.85317 -0.927051 15
    endloop
  endfacet
  facet normal -0.891006 -0.453991 -0
    outer loop
      vertex -2.85317 -0.927051 4
      vertex -2.42705 -1.76336 4
      vertex -2.85317 -0.927051 15
    endloop
  endfacet
  facet normal -0.891006 -0.453991 0
    outer loop
      vertex -2.85317 -0.927051 15
      vertex -2.42705 -1.76336 4
      vertex -2.42705 -1.76336 15
    endloop
  endfacet
  facet normal -0.707107 -0.707107 0
    outer loop
      vertex -2.42705 -1.76336 15
      vertex -2.42705 -1.76336 4
      vertex -1.76336 -2.42705 4
    endloop
  endfacet
  facet normal -0.707107 -0.707107 0
    outer loop
      vertex -1.76336 -2.42705 15
      vertex -2.42705 -1.76336 15
      vertex -1.76336 -2.42705 4
    endloop
  endfacet
  facet normal -0.453991 -0.891006 0
    outer loop
      vertex -1.76336 -2.42705 15
      vertex -1.76336 -2.42705 4
      vertex -0.927051 -2.85317 4
    endloop
  endfacet
  facet normal -0.453991 -0.891006 0
    outer loop
      vertex -0.927051 -2.85317 15
      vertex -1.76336 -2.42705 15
      vertex -0.927051 -2.85317 4
    endloop
  endfacet
  facet normal -0.156434 -0.987688 0
    outer loop
      vertex -0.927051 -2.85317 15
      vertex -0.927051 -2.85317 4
      vertex 0 -3 4
    endloop
  endfacet
  facet normal -0.156434 -0.987688 0
    outer loop
      vertex 0 -3 15
      vertex -0.927051 -2.85317 15
      vertex 0 -3 4
    endloop
  endfacet
  facet normal 0.156434 -0.987688 0
    outer loop
      vertex 0 -3 15
      vertex 0 -3 4
      vertex 0.927051 -2.85317 4
    endloop
  endfacet
  facet normal 0.156434 -0.987688 0
    outer loop
      vertex 0.927051 -2.85317 15
      vertex 0 -3 15
      vertex 0.927051 -2.85317 4
    endloop
  endfacet
  facet normal 0.453991 -0.891006 0
    outer loop
      vertex 0.927051 -2.85317 15
      vertex 0.927051 -2.85317 4
      vertex 1.76336 -2.42705 4
    endloop
  endfacet
  facet normal 0.453991 -0.891006 0
    outer loop
      vertex 1.76336 -2.42705 15
      vertex 0.927051 -2.85317 15
      vertex 1.76336 -2.42705 4
    endloop
  endfacet
  facet normal 0.707107 -0.707107 0
    outer loop
      vertex 1.76336 -2.42705 15
      vertex 1.76336 -2.42705 4
      vertex 2.42705 -1.76336 4
    endloop
  endfacet
  facet normal 0.707107 -0.707107 0
    outer loop
      vertex 2.42705 -1.76336 15
      vertex 1.76336 -2.42705 15
      vertex 2.42705 -1.76336 4
    endloop
  endfacet
  facet normal 0.891006 -0.453991 0
    outer loop
      vertex 2.42705 -1.76336 15
      vertex 2.42705 -1.76336 4
      vertex 2.85317 -0.927051 4
    endloop
  endfacet
  facet normal 0.891006 -0.453991 0
    outer loop
      vertex 2.85317 -0.927051 15
      vertex 2.42705 -1.76336 15
      vertex 2.85317 -0.927051 4
    endloop
  endfacet
  facet normal 0.987688 -0.156434 0
    outer loop
      vertex 2.85317 -0.927051 15
      vertex 2.85317 -0.927051 4
      vertex 3 0 4
    endloop
  endfacet
  facet normal 0.987688 -0.156434 0
    outer loop
      vertex 3 0 15
      vertex 2.85317 -0.927051 15
      vertex 3 0 4
    endloop
  endfacet
  facet normal 0.987688 0.156434 0
    outer loop
      vertex 3 0 4
      vertex 2.85317 0.927051 4
      vertex 2.85317 0.927051 15
    endloop
  endfacet
  facet normal 0.987688 0.156434 -0
    outer loop
      vertex 3 0 15
      vertex 3 0 4
      vertex 2.85317 0.927051 15
    endloop
  endfacet
  facet normal 0.891006 0.453991 0
    outer loop
      vertex 2.85317 0.927051 4
      vertex 2.42705 1.76336 4
      vertex 2.42705 1.76336 15
    endloop
  endfacet
  facet normal 0.891006 0.453991 -0
    outer loop
      vertex 2.85317 0.927051 15
      vertex 2.85317 0.927051 4
      vertex 2.42705 1.76336 15
    endloop
  endfacet
  facet normal 0.707107 0.707107 0
    outer loop
      vertex 1.76336 2.42705 4
      vertex 1.76336 2.42705 15
      vertex 2.42705 1.76336 4
    endloop
  endfacet
  facet normal 0.707107 0.707107 0
    outer loop
      vertex 2.42705 1.76336 4
      vertex 1.76336 2.42705 15
      vertex 2.42705 1.76336 15
    endloop
  endfacet
  facet normal 0.453991 0.891006 0
    outer loop
      vertex 0.927051 2.85317 4
      vertex 0.927051 2.85317 15
      vertex 1.76336 2.42705 4
    endloop
  endfacet
  facet normal 0.453991 0.891006 0
    outer loop
      vertex 1.76336 2.42705 4
      vertex 0.927051 2.85317 15
      vertex 1.76336 2.42705 15
    endloop
  endfacet
  facet normal 0.156434 0.987688 0
    outer loop
      vertex 0 3 4
      vertex 0 3 15
      vertex 0.927051 2.85317 4
    endloop
  endfacet
  facet normal 0.156434 0.987688 0
    outer loop
      vertex 0.927051 2.85317 4
      vertex 0 3 15
      vertex 0.927051 2.85317 15
    endloop
  endfacet
  facet normal -0.156434 0.987688 0
    outer loop
      vertex -0.927051 2.85317 4
      vertex -0.927051 2.85317 15
      vertex 0 3 4
    endloop
  endfacet
  facet normal -0.156434 0.987688 0
    outer loop
      vertex 0 3 4
      vertex -0.927051 2.85317 15
      vertex 0 3 15
    endloop
  endfacet
  facet normal -0.453991 0.891006 0
    outer loop
      vertex -1.76336 2.42705 4
      vertex -1.76336 2.42705 15
      vertex -0.927051 2.85317 4
    endloop
  endfacet
  facet normal -0.453991 0.891006 0
    outer loop
      vertex -0.927051 2.85317 4
      vertex -1.76336 2.42705 15
      vertex -0.927051 2.85317 15
    endloop
  endfacet
  facet normal -0.707107 0.707107 0
    outer loop
      vertex -2.42705 1.76336 4
      vertex -2.42705 1.76336 15
      vertex -1.76336 2.42705 4
    endloop
  endfacet
  facet normal -0.707107 0.707107 0
    outer loop
      vertex -1.76336 2.42705 4
      vertex -2.42705 1.76336 15
      vertex -1.76336 2.42705 15
    endloop
  endfacet
  facet normal -0.891006 0.453991 0
    outer loop
      vertex -2.85317 0.927051 4
      vertex -2.85317 0.927051 15
      vertex -2.42705 1.76336 4
    endloop
  endfacet
  facet normal -0.891006 0.453991 0
    outer loop
      vertex -2.42705 1.76336 4
      vertex -2.85317 0.927051 15
      vertex -2.42705 1.76336 15
    endloop
  endfacet
  facet normal 0 0 1
    outer loop
      vertex -2.85317 0.927051 15
      vertex -3 0 15
      vertex -2.85317 -0.927051 15
    endloop
  endfacet
  facet normal 0 0 1
    outer loop
      vertex -1.76336 -2.42705 15
      vertex -2.85317 0.927051 15
      vertex -2.42705 -1.76336 15
    endloop
  endfacet
  facet normal 0 0 1
    outer loop
      vertex -2.42705 -1.76336 15
      vertex -2.85317 0.927051 15
      vertex -2.85317 -0.927051 15
    endloop
  endfacet
  facet normal 0 0 1
    outer loop
      vertex -0.927051 -2.85317 15
      vertex -2.85317 0.927051 15
      vertex -1.76336 -2.42705 15
    endloop
  endfacet
  facet normal 0 0 1
    outer loop
      vertex 0 -3 15
      vertex -2.85317 0.927051 15
      vertex -0.927051 -2.85317 15
    endloop
  endfacet
  facet normal -0 0 1
    outer loop
      vertex 0.927051 -2.85317 15
      vertex -2.85317 0.927051 15
      vertex 0 -3 15
    endloop
  endfacet
  facet normal -0 -0 1
    outer loop
      vertex -0.587785 -0.809017 15
      vertex -2.85317 0.927051 15
      vertex 0.927051 -2.85317 15
    endloop
  endfacet
  facet normal -0 -0 1
    outer loop
      vertex 0 -1 15
      vertex -0.309017 -0.951057 15
      vertex 1.76336 -2.42705 15
    endloop
  endfacet
  facet normal 0 -0 1
    outer loop
      vertex 0.587785 -0.809017 15
      vertex 0.309017 -0.951057 15
      vertex 2.42705 -1.76336 15
    endloop
  endfacet
  facet normal 0 0 1
    outer loop
      vertex -0.809017 0.587785 15
      vertex -0.587785 0.809017 15
      vertex -2.85317 0.927051 15
    endloop
  endfacet
  facet normal 0 -0 1
    outer loop
      vertex 1.76336 2.42705 15
      vertex -2.85317 0.927051 15
      vertex 2.42705 1.76336 15
    endloop
  endfacet
  facet normal 0 -0 1
    outer loop
      vertex 0.927051 2.85317 15
      vertex -2.85317 0.927051 15
      vertex 1.76336 2.42705 15
    endloop
  endfacet
  facet normal 0 -0 1
    outer loop
      vertex 0 3 15
      vertex -2.85317 0.927051 15
      vertex 0.927051 2.85317 15
    endloop
  endfacet
  facet normal 0 -0 1
    outer loop
      vertex -0.927051 2.85317 15
      vertex -2.85317 0.927051 15
      vertex 0 3 15
    endloop
  endfacet
  facet normal 0 -0 1
    outer loop
      vertex -1.76336 2.42705 15
      vertex -2.85317 0.927051 15
      vertex -0.927051 2.85317 15
    endloop
  endfacet
  facet normal 0 -0 1
    outer loop
      vertex -2.42705 1.76336 15
      vertex -2.85317 0.927051 15
      vertex -1.76336 2.42705 15
    endloop
  endfacet
  facet normal -0 0 1
    outer loop
      vertex -0.951057 0.309017 15
      vertex -2.85317 0.927051 15
      vertex -1 0 15
    endloop
  endfacet
  facet normal 0 0 1
    outer loop
      vertex 0.309017 0.951057 15
      vertex 0.587785 0.809017 15
      vertex 2.85317 0.927051 15
    endloop
  endfacet
  facet normal 0 0 1
    outer loop
      vertex -0.587785 0.809017 15
      vertex -0.309017 0.951057 15
      vertex -2.85317 0.927051 15
    endloop
  endfacet
  facet normal 0 -0 1
    outer loop
      vertex 0.951057 -0.309017 15
      vertex 0.809017 -0.587785 15
      vertex 2.85317 -0.927051 15
    endloop
  endfacet
  facet normal 0 0 1
    outer loop
      vertex 0.809017 0.587785 15
      vertex 0.951057 0.309017 15
      vertex 3 0 15
    endloop
  endfacet
  facet normal 0 0 1
    outer loop
      vertex 2.42705 1.76336 15
      vertex -2.85317 0.927051 15
      vertex -0.309017 0.951057 15
    endloop
  endfacet
  facet normal 0 -0 1
    outer loop
      vertex 2.42705 1.76336 15
      vertex 0 1 15
      vertex 2.85317 0.927051 15
    endloop
  endfacet
  facet normal 0 0 1
    outer loop
      vertex 2.42705 1.76336 15
      vertex -0.309017 0.951057 15
      vertex 0 1 15
    endloop
  endfacet
  facet normal 0 0 1
    outer loop
      vertex 0 1 15
      vertex 0.309017 0.951057 15
      vertex 2.85317 0.927051 15
    endloop
  endfacet
  facet normal 0 -0 1
    outer loop
      vertex 2.85317 0.927051 15
      vertex 0.587785 0.809017 15
      vertex 3 0 15
    endloop
  endfacet
  facet normal 0 0 1
    outer loop
      vertex 0.587785 0.809017 15
      vertex 0.809017 0.587785 15
      vertex 3 0 15
    endloop
  endfacet
  facet normal -0 0 1
    outer loop
      vertex 3 0 15
      vertex 0.951057 0.309017 15
      vertex 2.85317 -0.927051 15
    endloop
  endfacet
  facet normal 0 0 1
    outer loop
      vertex 0.951057 0.309017 15
      vertex 1 0 15
      vertex 2.85317 -0.927051 15
    endloop
  endfacet
  facet normal 0 -0 1
    outer loop
      vertex 1 0 15
      vertex 0.951057 -0.309017 15
      vertex 2.85317 -0.927051 15
    endloop
  endfacet
  facet normal -0 0 1
    outer loop
      vertex 2.85317 -0.927051 15
      vertex 0.809017 -0.587785 15
      vertex 2.42705 -1.76336 15
    endloop
  endfacet
  facet normal 0 -0 1
    outer loop
      vertex 0.809017 -0.587785 15
      vertex 0.587785 -0.809017 15
      vertex 2.42705 -1.76336 15
    endloop
  endfacet
  facet normal -0 0 1
    outer loop
      vertex 2.42705 -1.76336 15
      vertex 0.309017 -0.951057 15
      vertex 1.76336 -2.42705 15
    endloop
  endfacet
  facet normal 0 -0 1
    outer loop
      vertex 0.309017 -0.951057 15
      vertex 0 -1 15
      vertex 1.76336 -2.42705 15
    endloop
  endfacet
  facet normal -0 0 1
    outer loop
      vertex 1.76336 -2.42705 15
      vertex -0.309017 -0.951057 15
      vertex 0.927051 -2.85317 15
    endloop
  endfacet
  facet normal 0 0 1
    outer loop
      vertex -0.951057 -0.309017 15
      vertex -1 0 15
      vertex -2.85317 0.927051 15
    endloop
  endfacet
  facet normal -0 -0 1
    outer loop
      vertex -0.309017 -0.951057 15
      vertex -0.587785 -0.809017 15
      vertex 0.927051 -2.85317 15
    endloop
  endfacet
  facet normal -0 -0 1
    outer loop
      vertex -0.809017 -0.587785 15
      vertex -2.85317 0.927051 15
      vertex -0.587785 -0.809017 15
    endloop
  endfacet
  facet normal 0 0 1
    outer loop
      vertex -0.951057 0.309017 15
      vertex -0.809017 0.587785 15
      vertex -2.85317 0.927051 15
    endloop
  endfacet
  facet normal 0 0 1
    outer loop
      vertex -0.809017 -0.587785 15
      vertex -0.951057 -0.309017 15
      vertex -2.85317 0.927051 15
    endloop
  endfacet
  facet normal 0.987689 0.156433 0
    outer loop
      vertex -1 0 15
      vertex -0.951057 -0.309017 15
      vertex -0.951057 -0.309017 4
    endloop
  endfacet
  facet normal 0.987689 0.156433 0
    outer loop
      vertex -1 0 4
      vertex -1 0 15
      vertex -0.951057 -0.309017 4
    endloop
  endfacet
  facet normal 0.891006 0.453992 0
    outer loop
      vertex -0.951057 -0.309017 15
      vertex -0.809017 -0.587785 15
      vertex -0.809017 -0.587785 4
    endloop
  endfacet
  facet normal 0.891006 0.453992 0
    outer loop
      vertex -0.951057 -0.309017 4
      vertex -0.951057 -0.309017 15
      vertex -0.809017 -0.587785 4
    endloop
  endfacet
  facet normal 0.707107 0.707107 -0
    outer loop
      vertex -0.587785 -0.809017 15
      vertex -0.587785 -0.809017 4
      vertex -0.809017 -0.587785 15
    endloop
  endfacet
  facet normal 0.707107 0.707107 -0
    outer loop
      vertex -0.809017 -0.587785 15
      vertex -0.587785 -0.809017 4
      vertex -0.809017 -0.587785 4
    endloop
  endfacet
  facet normal 0.453992 0.891006 -0
    outer loop
      vertex -0.309017 -0.951057 15
      vertex -0.309017 -0.951057 4
      vertex -0.587785 -0.809017 15
    endloop
  endfacet
  facet normal 0.453992 0.891006 -0
    outer loop
      vertex -0.587785 -0.809017 15
      vertex -0.309017 -0.951057 4
      vertex -0.587785 -0.809017 4
    endloop
  endfacet
  facet normal 0.156433 0.987689 -0
    outer loop
      vertex 0 -1 15
      vertex 0 -1 4
      vertex -0.309017 -0.951057 15
    endloop
  endfacet
  facet normal 0.156433 0.987689 -0
    outer loop
      vertex -0.309017 -0.951057 15
      vertex 0 -1 4
      vertex -0.309017 -0.951057 4
    endloop
  endfacet
  facet normal -0.156433 0.987689 0
    outer loop
      vertex 0.309017 -0.951057 15
      vertex 0.309017 -0.951057 4
      vertex 0 -1 15
    endloop
  endfacet
  facet normal -0.156433 0.987689 0
    outer loop
      vertex 0 -1 15
      vertex 0.309017 -0.951057 4
      vertex 0 -1 4
    endloop
  endfacet
  facet normal -0.453992 0.891006 0
    outer loop
      vertex 0.587785 -0.809017 15
      vertex 0.587785 -0.809017 4
      vertex 0.309017 -0.951057 15
    endloop
  endfacet
  facet normal -0.453992 0.891006 0
    outer loop
      vertex 0.309017 -0.951057 15
      vertex 0.587785 -0.809017 4
      vertex 0.309017 -0.951057 4
    endloop
  endfacet
  facet normal -0.707107 0.707107 0
    outer loop
      vertex 0.809017 -0.587785 15
      vertex 0.809017 -0.587785 4
      vertex 0.587785 -0.809017 15
    endloop
  endfacet
  facet normal -0.707107 0.707107 0
    outer loop
      vertex 0.587785 -0.809017 15
      vertex 0.809017 -0.587785 4
      vertex 0.587785 -0.809017 4
    endloop
  endfacet
  facet normal -0.891006 0.453992 0
    outer loop
      vertex 0.951057 -0.309017 15
      vertex 0.951057 -0.309017 4
      vertex 0.809017 -0.587785 15
    endloop
  endfacet
  facet normal -0.891006 0.453992 0
    outer loop
      vertex 0.809017 -0.587785 15
      vertex 0.951057 -0.309017 4
      vertex 0.809017 -0.587785 4
    endloop
  endfacet
  facet normal -0.987689 0.156433 0
    outer loop
      vertex 1 0 15
      vertex 1 0 4
      vertex 0.951057 -0.309017 15
    endloop
  endfacet
  facet normal -0.987689 0.156433 0
    outer loop
      vertex 0.951057 -0.309017 15
      vertex 1 0 4
      vertex 0.951057 -0.309017 4
    endloop
  endfacet
  facet normal -0.987689 -0.156433 0
    outer loop
      vertex 1 0 15
      vertex 0.951057 0.309017 15
      vertex 1 0 4
    endloop
  endfacet
  facet normal -0.987689 -0.156433 0
    outer loop
      vertex 1 0 4
      vertex 0.951057 0.309017 15
      vertex 0.951057 0.309017 4
    endloop
  endfacet
  facet normal -0.891006 -0.453992 0
    outer loop
      vertex 0.951057 0.309017 15
      vertex 0.809017 0.587785 15
      vertex 0.951057 0.309017 4
    endloop
  endfacet
  facet normal -0.891006 -0.453992 0
    outer loop
      vertex 0.951057 0.309017 4
      vertex 0.809017 0.587785 15
      vertex 0.809017 0.587785 4
    endloop
  endfacet
  facet normal -0.707107 -0.707107 -0
    outer loop
      vertex 0.809017 0.587785 4
      vertex 0.809017 0.587785 15
      vertex 0.587785 0.809017 15
    endloop
  endfacet
  facet normal -0.707107 -0.707107 -0
    outer loop
      vertex 0.587785 0.809017 4
      vertex 0.809017 0.587785 4
      vertex 0.587785 0.809017 15
    endloop
  endfacet
  facet normal -0.453992 -0.891006 -0
    outer loop
      vertex 0.587785 0.809017 4
      vertex 0.587785 0.809017 15
      vertex 0.309017 0.951057 15
    endloop
  endfacet
  facet normal -0.453992 -0.891006 -0
    outer loop
      vertex 0.309017 0.951057 4
      vertex 0.587785 0.809017 4
      vertex 0.309017 0.951057 15
    endloop
  endfacet
  facet normal -0.156433 -0.987689 -0
    outer loop
      vertex 0.309017 0.951057 4
      vertex 0.309017 0.951057 15
      vertex 0 1 15
    endloop
  endfacet
  facet normal -0.156433 -0.987689 -0
    outer loop
      vertex 0 1 4
      vertex 0.309017 0.951057 4
      vertex 0 1 15
    endloop
  endfacet
  facet normal 0.156433 -0.987689 0
    outer loop
      vertex 0 1 4
      vertex 0 1 15
      vertex -0.309017 0.951057 15
    endloop
  endfacet
  facet normal 0.156433 -0.987689 0
    outer loop
      vertex -0.309017 0.951057 4
      vertex 0 1 4
      vertex -0.309017 0.951057 15
    endloop
  endfacet
  facet normal 0.453992 -0.891006 0
    outer loop
      vertex -0.309017 0.951057 4
      vertex -0.309017 0.951057 15
      vertex -0.587785 0.809017 15
    endloop
  endfacet
  facet normal 0.453992 -0.891006 0
    outer loop
      vertex -0.587785 0.809017 4
      vertex -0.309017 0.951057 4
      vertex -0.587785 0.809017 15
    endloop
  endfacet
  facet normal 0.707107 -0.707107 0
    outer loop
      vertex -0.587785 0.809017 4
      vertex -0.587785 0.809017 15
      vertex -0.809017 0.587785 15
    endloop
  endfacet
  facet normal 0.707107 -0.707107 0
    outer loop
      vertex -0.809017 0.587785 4
      vertex -0.587785 0.809017 4
      vertex -0.809017 0.587785 15
    endloop
  endfacet
  facet normal 0.891006 -0.453992 0
    outer loop
      vertex -0.809017 0.587785 4
      vertex -0.809017 0.587785 15
      vertex -0.951057 0.309017 15
    endloop
  endfacet
  facet normal 0.891006 -0.453992 0
    outer loop
      vertex -0.951057 0.309017 4
      vertex -0.809017 0.587785 4
      vertex -0.951057 0.309017 15
    endloop
  endfacet
  facet normal 0.987689 -0.156433 0
    outer loop
      vertex -0.951057 0.309017 4
      vertex -0.951057 0.309017 15
      vertex -1 0 15
    endloop
  endfacet
  facet normal 0.987689 -0.156433 0
    outer loop
      vertex -1 0 4
      vertex -0.951057 0.309017 4
      vertex -1 0 15
    endloop
  endfacet
  facet normal 0 0 1
    outer loop
      vertex -0.951057 -0.309017 4
      vertex -0.809017 -0.587785 4
      vertex -0.587785 -0.809017 4
    endloop
  endfacet
  facet normal 0 0 1
    outer loop
      vertex 0 -1 4
      vertex -0.951057 -0.309017 4
      vertex -0.309017 -0.951057 4
    endloop
  endfacet
  facet normal 0 0 1
    outer loop
      vertex -0.309017 -0.951057 4
      vertex -0.951057 -0.309017 4
      vertex -0.587785 -0.809017 4
    endloop
  endfacet
  facet normal -0 0 1
    outer loop
      vertex 0.309017 -0.951057 4
      vertex -0.951057 -0.309017 4
      vertex 0 -1 4
    endloop
  endfacet
  facet normal -0 0 1
    outer loop
      vertex 0.587785 -0.809017 4
      vertex -0.951057 -0.309017 4
      vertex 0.309017 -0.951057 4
    endloop
  endfacet
  facet normal -0 0 1
    outer loop
      vertex 0.809017 -0.587785 4
      vertex -0.951057 -0.309017 4
      vertex 0.587785 -0.809017 4
    endloop
  endfacet
  facet normal 0 0 1
    outer loop
      vertex 0.951057 -0.309017 4
      vertex -0.951057 -0.309017 4
      vertex 0.809017 -0.587785 4
    endloop
  endfacet
  facet normal 0 0 1
    outer loop
      vertex 1 0 4
      vertex -0.951057 -0.309017 4
      vertex 0.951057 -0.309017 4
    endloop
  endfacet
  facet normal 0 -0 1
    outer loop
      vertex 0.951057 0.309017 4
      vertex -0.951057 -0.309017 4
      vertex 1 0 4
    endloop
  endfacet
  facet normal 0 -0 1
    outer loop
      vertex 0.809017 0.587785 4
      vertex -0.951057 -0.309017 4
      vertex 0.951057 0.309017 4
    endloop
  endfacet
  facet normal 0 -0 1
    outer loop
      vertex 0.587785 0.809017 4
      vertex -0.951057 -0.309017 4
      vertex 0.809017 0.587785 4
    endloop
  endfacet
  facet normal 0 -0 1
    outer loop
      vertex 0.309017 0.951057 4
      vertex -0.951057 -0.309017 4
      vertex 0.587785 0.809017 4
    endloop
  endfacet
  facet normal 0 -0 1
    outer loop
      vertex 0 1 4
      vertex -0.951057 -0.309017 4
      vertex 0.309017 0.951057 4
    endloop
  endfacet
  facet normal 0 -0 1
    outer loop
      vertex -0.309017 0.951057 4
      vertex -0.951057 -0.309017 4
      vertex 0 1 4
    endloop
  endfacet
  facet normal 0 -0 1
    outer loop
      vertex -0.587785 0.809017 4
      vertex -0.951057 -0.309017 4
      vertex -0.309017 0.951057 4
    endloop
  endfacet
  facet normal 0 -0 1
    outer loop
      vertex -0.809017 0.587785 4
      vertex -0.951057 -0.309017 4
      vertex -0.587785 0.809017 4
    endloop
  endfacet
  facet normal 0 -0 1
    outer loop
      vertex -0.951057 0.309017 4
      vertex -0.951057 -0.309017 4
      vertex -0.809017 0.587785 4
    endloop
  endfacet
  facet normal 0 0 1
    outer loop
      vertex -1 0 4
      vertex -0.951057 -0.309017 4
      vertex -0.951057 0.309017 4
    endloop
  endfacet
endsolid OpenSCAD_Model
